<?xml version="1.0" encoding="UTF-8" standalone="no"?>
<!-- Created with Inkscape (http://www.inkscape.org/) -->

<svg
   width="258.95325mm"
   height="49.555611mm"
   viewBox="0 0 978.72095 187.2968"
   version="1.1"
   id="svg1"
   inkscape:version="1.3 (0e150ed6c4, 2023-07-21)"
   sodipodi:docname="storage_ram_cpu.svg"
   xmlns:inkscape="http://www.inkscape.org/namespaces/inkscape"
   xmlns:sodipodi="http://sodipodi.sourceforge.net/DTD/sodipodi-0.dtd"
   xmlns="http://www.w3.org/2000/svg"
   xmlns:svg="http://www.w3.org/2000/svg">
  <sodipodi:namedview
     id="namedview1"
     pagecolor="#ffffff"
     bordercolor="#000000"
     borderopacity="0.25"
     inkscape:showpageshadow="2"
     inkscape:pageopacity="0.0"
     inkscape:pagecheckerboard="0"
     inkscape:deskcolor="#d1d1d1"
     inkscape:document-units="mm"
     inkscape:zoom="1.0243155"
     inkscape:cx="664.34611"
     inkscape:cy="183.04907"
     inkscape:window-width="1920"
     inkscape:window-height="1009"
     inkscape:window-x="-8"
     inkscape:window-y="-8"
     inkscape:window-maximized="1"
     inkscape:current-layer="layer1" />
  <defs
     id="defs1">
    <rect
       x="595.4021"
       y="148.02039"
       width="79.041786"
       height="24.706511"
       id="rect19" />
    <rect
       x="490.81845"
       y="150.17526"
       width="59.36763"
       height="17.485744"
       id="rect18" />
    <rect
       x="365.17996"
       y="410.74118"
       width="75.245018"
       height="15.187068"
       id="rect15" />
    <rect
       x="481.84427"
       y="378.98639"
       width="196.05125"
       height="28.303137"
       id="rect14" />
    <rect
       x="699.97968"
       y="350.96609"
       width="114.22262"
       height="22.92235"
       id="rect11" />
    <marker
       style="overflow:visible"
       id="Triangle"
       refX="0"
       refY="0"
       orient="auto-start-reverse"
       inkscape:stockid="Triangle arrow"
       markerWidth="1"
       markerHeight="1"
       viewBox="0 0 1 1"
       inkscape:isstock="true"
       inkscape:collect="always"
       preserveAspectRatio="xMidYMid">
      <path
         transform="scale(0.5)"
         style="fill:context-stroke;fill-rule:evenodd;stroke:context-stroke;stroke-width:1pt"
         d="M 5.77,0 -2.88,5 V -5 Z"
         id="path135" />
    </marker>
    <rect
       x="775.23083"
       y="348.26709"
       width="108.03528"
       height="28.993494"
       id="rect8" />
    <marker
       style="overflow:visible"
       id="Triangle-8"
       refX="0"
       refY="0"
       orient="auto-start-reverse"
       inkscape:stockid="Triangle arrow"
       markerWidth="1"
       markerHeight="1"
       viewBox="0 0 1 1"
       inkscape:isstock="true"
       inkscape:collect="always"
       preserveAspectRatio="xMidYMid">
      <path
         transform="scale(0.5)"
         style="fill:context-stroke;fill-rule:evenodd;stroke:context-stroke;stroke-width:1pt"
         d="M 5.77,0 -2.88,5 V -5 Z"
         id="path135-0" />
    </marker>
    <rect
       x="481.84427"
       y="378.98639"
       width="196.05125"
       height="28.303137"
       id="rect14-5" />
    <rect
       x="490.81845"
       y="150.17526"
       width="59.36763"
       height="17.485744"
       id="rect18-2" />
  </defs>
  <g
     inkscape:label="Layer 1"
     inkscape:groupmode="layer"
     id="layer1"
     transform="translate(-83.58986,-46.737123)">
    <path
       style="fill:none;stroke:#000000;stroke-width:2.89134;stroke-dasharray:none;stroke-opacity:1"
       d="M 842.01752,64.905225 V 204.35013 h 218.14158"
       id="path1" />
    <path
       style="fill:none;stroke:#000000;stroke-width:2.92338;stroke-dasharray:none;stroke-opacity:1"
       d="m 1060.1593,205.78967 0.6899,-142.330455"
       id="path2" />
    <path
       style="fill:none;stroke:#000000;stroke-width:2.89134;stroke-dasharray:none;stroke-opacity:1"
       d="m 840.57185,64.905225 219.58725,-0.007"
       id="path3" />
    <circle
       style="fill:none;stroke:#000000;stroke-width:2.89134;stroke-dasharray:none;stroke-opacity:1"
       id="path4"
       cx="901.33374"
       cy="131.7964"
       r="39.050468" />
    <ellipse
       style="fill:none;stroke:#000000;stroke-width:2.89134;stroke-dasharray:none;stroke-opacity:1"
       id="path5"
       cx="901.33374"
       cy="131.7964"
       rx="8.0541515"
       ry="8.2982178" />
    <path
       style="fill:none;stroke:#000000;stroke-width:2.89134;stroke-dasharray:none;stroke-opacity:1"
       d="M 947.46203,180.36544 919.63857,143.02343"
       id="path6" />
    <path
       style="fill:none;stroke:#000000;stroke-width:2.89134;stroke-dasharray:none;stroke-opacity:1"
       d="M 961.61783,165.23338 918.47931,142.15967"
       id="path7" />
    <path
       style="fill:none;stroke:#000000;stroke-width:3.23002;stroke-dasharray:none;stroke-opacity:1"
       d="m 947.28469,182.06293 16.00643,-17.05925"
       id="path8" />
    <text
       xml:space="preserve"
       id="text8"
       style="font-family:Arial;-inkscape-font-specification:Arial;white-space:pre;shape-inside:url(#rect8);display:inline;fill:#000000;fill-opacity:1;stroke:none;stroke-width:2.89134;stroke-dasharray:none;stroke-opacity:1" />
    <path
       d="m 953.69836,93.90023 1.07227,-0.09375 q 0.0762,0.644532 0.35156,1.060547 0.28125,0.410157 0.86719,0.667969 0.58594,0.251953 1.31836,0.251953 0.65039,0 1.14844,-0.193359 0.49804,-0.19336 0.73828,-0.527344 0.24609,-0.339844 0.24609,-0.738281 0,-0.404297 -0.23437,-0.703125 -0.23438,-0.304688 -0.77344,-0.509766 -0.3457,-0.134765 -1.5293,-0.416015 -1.18359,-0.28711 -1.6582,-0.539063 -0.61524,-0.322266 -0.91992,-0.796875 -0.29883,-0.480469 -0.29883,-1.072266 0,-0.65039 0.36914,-1.21289 0.36914,-0.56836 1.07812,-0.861328 0.70899,-0.292969 1.57618,-0.292969 0.95507,0 1.68164,0.310547 0.73242,0.304687 1.125,0.902344 0.39258,0.597656 0.42187,1.353515 l -1.08984,0.08203 q -0.0879,-0.814453 -0.59766,-1.230468 -0.5039,-0.416016 -1.49414,-0.416016 -1.03125,0 -1.50586,0.380859 -0.46875,0.375 -0.46875,0.908204 0,0.46289 0.33399,0.761718 0.32812,0.298828 1.71093,0.615235 1.38868,0.310547 1.9043,0.544922 0.75,0.345703 1.10742,0.878906 0.35742,0.527344 0.35742,1.21875 0,0.685547 -0.39257,1.294922 -0.39258,0.603515 -1.13086,0.943359 -0.73242,0.333984 -1.65235,0.333984 -1.16601,0 -1.95703,-0.339843 -0.78515,-0.339844 -1.23633,-1.019532 -0.44531,-0.685546 -0.46875,-1.546875 z m 10.5586,1.816407 0.15234,0.93164 q -0.44531,0.09375 -0.79687,0.09375 -0.57422,0 -0.89063,-0.18164 -0.3164,-0.181641 -0.44531,-0.47461 -0.12891,-0.298828 -0.12891,-1.248047 v -3.580078 h -0.77343 V 90.43734 h 0.77343 v -1.541016 l 1.04883,-0.632812 v 2.173828 h 1.06055 v 0.820312 h -1.06055 v 3.638672 q 0,0.451172 0.0527,0.580078 0.0586,0.128907 0.18164,0.205078 0.1289,0.07617 0.36328,0.07617 0.17578,0 0.46289,-0.04101 z m 0.63867,-2.167969 q 0,-1.728516 0.96094,-2.560547 0.80273,-0.691406 1.95703,-0.691406 1.2832,0 2.09765,0.84375 0.81446,0.83789 0.81446,2.320312 0,1.201172 -0.36328,1.892578 -0.35743,0.685547 -1.04883,1.066407 -0.68555,0.380859 -1.5,0.380859 -1.30664,0 -2.11524,-0.837891 -0.80273,-0.83789 -0.80273,-2.414062 z m 1.08398,0 q 0,1.195312 0.52149,1.792969 0.52148,0.591797 1.3125,0.591797 0.78515,0 1.30664,-0.597657 0.52148,-0.597656 0.52148,-1.822265 0,-1.154297 -0.52734,-1.746094 -0.52148,-0.597656 -1.30078,-0.597656 -0.79102,0 -1.3125,0.591797 -0.52149,0.591796 -0.52149,1.787109 z m 5.97071,3.111328 V 90.43734 h 0.94922 v 0.943359 q 0.36328,-0.662109 0.66796,-0.873047 0.31055,-0.210937 0.67969,-0.210937 0.53321,0 1.08399,0.339844 l -0.36328,0.978515 q -0.38672,-0.228515 -0.77344,-0.228515 -0.34571,0 -0.6211,0.210937 -0.27539,0.205078 -0.39257,0.574219 -0.17579,0.5625 -0.17579,1.230469 v 3.257812 z m 8.06836,-0.767578 q -0.58594,0.498047 -1.13086,0.703125 -0.53907,0.205078 -1.16016,0.205078 -1.02539,0 -1.57617,-0.498047 -0.55078,-0.503906 -0.55078,-1.283203 0,-0.457031 0.20508,-0.832031 0.21093,-0.38086 0.54492,-0.609375 0.33984,-0.228516 0.76172,-0.345703 0.31054,-0.08203 0.9375,-0.158203 1.27734,-0.152344 1.88086,-0.363282 0.006,-0.216797 0.006,-0.27539 0,-0.644532 -0.29883,-0.908203 -0.4043,-0.357422 -1.20117,-0.357422 -0.74415,0 -1.10157,0.263672 -0.35156,0.257812 -0.52148,0.919921 l -1.03125,-0.140625 q 0.14062,-0.662109 0.46289,-1.066406 0.32226,-0.410156 0.93164,-0.626953 0.60937,-0.222656 1.41211,-0.222656 0.79687,0 1.29492,0.1875 0.49805,0.1875 0.73242,0.474609 0.23438,0.28125 0.32813,0.714844 0.0527,0.269531 0.0527,0.972656 v 1.40625 q 0,1.470703 0.0645,1.863281 0.0703,0.386719 0.26953,0.744141 h -1.10157 q -0.16406,-0.328125 -0.21093,-0.767578 z m -0.0879,-2.355469 q -0.57422,0.234375 -1.72266,0.398438 -0.65039,0.09375 -0.91992,0.210937 -0.26953,0.117188 -0.41602,0.345703 -0.14648,0.222657 -0.14648,0.498047 0,0.421875 0.3164,0.703125 0.32227,0.28125 0.9375,0.28125 0.60938,0 1.08399,-0.263672 0.47461,-0.269531 0.69726,-0.732422 0.16993,-0.357421 0.16993,-1.054687 z m 2.50781,3.638672 1.02539,0.152344 q 0.0645,0.474609 0.35742,0.691406 0.39258,0.292969 1.07227,0.292969 0.73242,0 1.13086,-0.292969 0.39843,-0.292969 0.53906,-0.820312 0.082,-0.322266 0.0762,-1.353516 -0.69141,0.814453 -1.72266,0.814453 -1.2832,0 -1.98632,-0.925781 -0.70313,-0.925781 -0.70313,-2.220703 0,-0.890625 0.32227,-1.640625 0.32226,-0.75586 0.93164,-1.166016 0.61523,-0.410156 1.4414,-0.410156 1.10157,0 1.81641,0.890625 v -0.75 h 0.97266 v 5.378906 q 0,1.453125 -0.29883,2.056641 -0.29297,0.609375 -0.9375,0.960937 -0.63867,0.351563 -1.57617,0.351563 -1.11329,0 -1.79883,-0.503907 -0.68555,-0.498046 -0.66211,-1.505859 z m 0.87305,-3.738281 q 0,1.224609 0.48632,1.787109 0.48633,0.5625 1.21875,0.5625 0.72657,0 1.21875,-0.55664 0.49219,-0.5625 0.49219,-1.757813 0,-1.142578 -0.50976,-1.722656 -0.50391,-0.580078 -1.21875,-0.580078 -0.70313,0 -1.19532,0.574218 -0.49218,0.56836 -0.49218,1.69336 z m 10.2539,1.21875 1.08985,0.134765 q -0.25782,0.955079 -0.95508,1.482422 -0.69727,0.527344 -1.78125,0.527344 -1.36524,0 -2.16797,-0.837891 -0.79688,-0.84375 -0.79688,-2.361328 0,-1.570312 0.8086,-2.4375 0.80859,-0.867187 2.09765,-0.867187 1.24805,0 2.03907,0.849609 0.79101,0.84961 0.79101,2.390625 0,0.09375 -0.006,0.28125 h -4.64062 q 0.0586,1.025391 0.58008,1.570313 0.52148,0.544922 1.30078,0.544922 0.58007,0 0.99023,-0.304688 0.41016,-0.304687 0.65039,-0.972656 z m -3.46289,-1.705078 h 3.47461 q -0.0703,-0.785157 -0.39844,-1.177735 -0.5039,-0.609375 -1.30664,-0.609375 -0.72656,0 -1.22461,0.486328 -0.49218,0.486329 -0.54492,1.300782 z m 9.31055,3.708984 v -8.589844 h 1.71089 l 2.0332,6.082032 q 0.2813,0.849609 0.4102,1.271484 0.1465,-0.46875 0.457,-1.376953 l 2.0567,-5.976563 h 1.5293 v 8.589844 h -1.0957 v -7.189453 l -2.4961,7.189453 h -1.0254 l -2.4844,-7.3125 v 7.3125 z m 14.15629,-2.003906 1.0898,0.134765 q -0.2578,0.955079 -0.9551,1.482422 -0.6972,0.527344 -1.7812,0.527344 -1.3653,0 -2.168,-0.837891 -0.7969,-0.84375 -0.7969,-2.361328 0,-1.570312 0.8086,-2.4375 0.8086,-0.867187 2.0977,-0.867187 1.248,0 2.039,0.849609 0.7911,0.84961 0.7911,2.390625 0,0.09375 -0.01,0.28125 h -4.6406 q 0.059,1.025391 0.5801,1.570313 0.5214,0.544922 1.3007,0.544922 0.5801,0 0.9903,-0.304688 0.4101,-0.304687 0.6504,-0.972656 z m -3.4629,-1.705078 h 3.4746 q -0.07,-0.785157 -0.3985,-1.177735 -0.5039,-0.609375 -1.3066,-0.609375 -0.7266,0 -1.2246,0.486328 -0.4922,0.486329 -0.5449,1.300782 z m 9.914,3.708984 V 95.87484 q -0.5918,0.925781 -1.7402,0.925781 -0.7441,0 -1.3711,-0.410156 -0.6211,-0.410156 -0.9668,-1.142578 -0.3398,-0.738282 -0.3398,-1.69336 0,-0.93164 0.3105,-1.6875 0.3106,-0.761718 0.9316,-1.166015 0.6211,-0.404297 1.3887,-0.404297 0.5625,0 1.002,0.240234 0.4394,0.234375 0.7148,0.615235 v -3.082032 h 1.0488 v 8.589844 z m -3.334,-3.105469 q 0,1.195313 0.504,1.78711 0.5039,0.591797 1.1894,0.591797 0.6914,0 1.1719,-0.5625 0.4863,-0.56836 0.4863,-1.728516 0,-1.277344 -0.4922,-1.875 -0.4922,-0.597656 -1.2129,-0.597656 -0.7031,0 -1.1777,0.574218 -0.4688,0.574219 -0.4688,1.810547 z m 5.9766,-4.271484 v -1.212891 h 1.0547 v 1.212891 z m 0,7.376953 V 90.43734 h 1.0547 v 6.222656 z m 6.7383,0 v -0.914062 q -0.7266,1.054687 -1.9746,1.054687 -0.5508,0 -1.0313,-0.210937 -0.4746,-0.210938 -0.709,-0.527344 -0.2285,-0.322266 -0.3222,-0.785156 -0.064,-0.310547 -0.064,-0.984375 V 90.43734 h 1.0547 v 3.451172 q 0,0.826172 0.065,1.113281 0.1,0.416016 0.4218,0.65625 0.3223,0.234375 0.7969,0.234375 0.4746,0 0.8906,-0.240234 0.4161,-0.246094 0.586,-0.66211 0.1758,-0.421875 0.1758,-1.21875 V 90.43734 h 1.0546 v 6.222656 z m 2.5957,0 V 90.43734 h 0.9434 v 0.873047 q 0.2929,-0.457032 0.7792,-0.732422 0.4864,-0.28125 1.1075,-0.28125 0.6914,0 1.1308,0.287109 0.4453,0.28711 0.627,0.802735 0.7383,-1.089844 1.9219,-1.089844 0.9257,0 1.4238,0.515625 0.498,0.509765 0.498,1.576172 v 4.271484 h -1.0488 v -3.919922 q 0,-0.632812 -0.1055,-0.908203 -0.1,-0.28125 -0.3691,-0.451172 -0.2695,-0.169922 -0.6328,-0.169922 -0.6563,0 -1.0899,0.439453 -0.4336,0.433594 -0.4336,1.394532 v 3.615234 h -1.0546 v -4.042969 q 0,-0.703125 -0.2579,-1.054687 -0.2578,-0.351563 -0.8437,-0.351563 -0.4453,0 -0.8262,0.234375 -0.375,0.234375 -0.5449,0.685547 -0.1699,0.451172 -0.1699,1.300781 v 3.228516 z"
       id="text9"
       style="font-family:Arial;-inkscape-font-specification:Arial;stroke-width:2.89134"
       aria-label="Storage Medium&#10;" />
    <path
       style="fill:none;fill-opacity:1;stroke:#000000;stroke-width:2.92215;stroke-dasharray:none;stroke-opacity:1;marker-start:url(#Triangle)"
       d="M 830.28731,108.08405 H 703.63503"
       id="path10" />
    <path
       style="fill:none;fill-opacity:1;stroke:#000000;stroke-width:2.80566;stroke-dasharray:none;stroke-opacity:1;marker-start:url(#Triangle-8);marker-end:url(#Triangle)"
       d="M 453.48189,141.5403 H 336.6803"
       id="path10-4" />
    <path
       style="fill:none;fill-opacity:1;stroke:#000000;stroke-width:2.89134;stroke-dasharray:none;stroke-opacity:1;marker-end:url(#Triangle)"
       d="M 840.57185,181.62556 H 716.57618"
       id="path10-0" />
    <rect
       style="fill:none;fill-opacity:1;stroke:#000000;stroke-width:2.89134;stroke-dasharray:none;stroke-opacity:1"
       id="rect10"
       width="240.23181"
       height="169.13571"
       x="464.89484"
       y="63.452538" />
    <rect
       style="fill:none;fill-opacity:1;stroke:#000000;stroke-width:2.89134;stroke-dasharray:none;stroke-opacity:1"
       id="rect10-1"
       width="240.23181"
       height="169.13571"
       x="85.03553"
       y="48.182793" />
    <path
       d="m 704.11133,354.3989 v -1.21289 h 1.05469 v 1.21289 z m 0,7.37695 v -6.22266 h 1.05469 v 6.22266 z m 2.66015,0 v -6.22266 h 0.94922 v 0.88477 q 0.68555,-1.02539 1.98047,-1.02539 0.5625,0 1.03125,0.20508 0.47461,0.19922 0.70899,0.52734 0.23437,0.32813 0.32812,0.7793 0.0586,0.29297 0.0586,1.02539 v 3.82617 h -1.05468 v -3.78516 q 0,-0.64453 -0.12305,-0.96093 -0.12305,-0.32227 -0.43945,-0.50977 -0.31055,-0.19336 -0.73242,-0.19336 -0.67383,0 -1.16602,0.42774 -0.48633,0.42773 -0.48633,1.62304 v 3.39844 z m 8.97657,-0.94336 0.15234,0.93164 q -0.44531,0.0937 -0.79687,0.0937 -0.57422,0 -0.89063,-0.18164 -0.31641,-0.18164 -0.44531,-0.47461 -0.12891,-0.29883 -0.12891,-1.24805 v -3.58007 h -0.77344 v -0.82032 h 0.77344 v -1.54101 l 1.04883,-0.63281 v 2.17382 h 1.06055 v 0.82032 h -1.06055 v 3.63867 q 0,0.45117 0.0527,0.58008 0.0586,0.1289 0.18164,0.20507 0.12891,0.0762 0.36329,0.0762 0.17578,0 0.46289,-0.041 z m 8.04492,0.94336 h -1.05469 v -6.7207 q -0.38086,0.36328 -1.00195,0.72656 -0.61524,0.36328 -1.10742,0.54492 v -1.01953 q 0.88476,-0.41602 1.54687,-1.00781 0.66211,-0.5918 0.9375,-1.14844 h 0.67969 z m 2.70703,-2.26758 1.05469,-0.14062 q 0.18164,0.89648 0.61523,1.29492 0.43945,0.39258 1.06641,0.39258 0.74414,0 1.2539,-0.51563 0.51563,-0.51562 0.51563,-1.27734 0,-0.72656 -0.47461,-1.19531 -0.47461,-0.47461 -1.20703,-0.47461 -0.29883,0 -0.74414,0.11718 l 0.11719,-0.92578 q 0.10546,0.0117 0.16992,0.0117 0.67383,0 1.21289,-0.35156 0.53906,-0.35156 0.53906,-1.08399 0,-0.58007 -0.39258,-0.96093 -0.39258,-0.38086 -1.01367,-0.38086 -0.61523,0 -1.02539,0.38672 -0.41016,0.38671 -0.52734,1.16015 l -1.05469,-0.1875 q 0.19336,-1.06054 0.8789,-1.64062 0.68555,-0.58594 1.70508,-0.58594 0.70313,0 1.29492,0.30469 0.5918,0.29883 0.90235,0.82031 0.3164,0.52148 0.3164,1.10742 0,0.55664 -0.29882,1.01367 -0.29883,0.45703 -0.88477,0.72657 0.76172,0.17578 1.18359,0.73242 0.42188,0.55078 0.42188,1.38281 0,1.125 -0.82031,1.91016 -0.82032,0.77929 -2.07422,0.77929 -1.13086,0 -1.88086,-0.67382 -0.74414,-0.67383 -0.84961,-1.7461 z m 6.96094,2.26758 v -8.58984 h 1.05468 v 3.08203 q 0.73829,-0.85547 1.86329,-0.85547 0.6914,0 1.20117,0.27539 0.50976,0.26953 0.72656,0.75 0.22266,0.48047 0.22266,1.39453 v 3.94336 h -1.05469 v -3.94336 q 0,-0.79102 -0.3457,-1.14844 -0.33985,-0.36328 -0.9668,-0.36328 -0.46875,0 -0.88477,0.2461 -0.41015,0.24023 -0.58593,0.65625 -0.17579,0.41601 -0.17579,1.14843 v 3.4043 z m 6.94922,-5.02148 v -1.20118 h 1.20117 v 1.20118 z m 0,5.02148 v -1.20117 h 1.20117 v 1.20117 q 0,0.66211 -0.23438,1.06641 -0.23437,0.41015 -0.74414,0.63281 l -0.29297,-0.45117 q 0.33399,-0.14649 0.49219,-0.4336 0.1582,-0.28125 0.17578,-0.81445 z m 10.45312,-0.76758 q -0.58594,0.49805 -1.13086,0.70313 -0.53906,0.20507 -1.16015,0.20507 -1.0254,0 -1.57618,-0.49804 -0.55078,-0.50391 -0.55078,-1.28321 0,-0.45703 0.20508,-0.83203 0.21094,-0.38086 0.54492,-0.60937 0.33985,-0.22852 0.76172,-0.3457 0.31055,-0.082 0.9375,-0.15821 1.27734,-0.15234 1.88086,-0.36328 0.006,-0.2168 0.006,-0.27539 0,-0.64453 -0.29883,-0.9082 -0.4043,-0.35742 -1.20117,-0.35742 -0.74414,0 -1.10156,0.26367 -0.35157,0.25781 -0.52149,0.91992 l -1.03125,-0.14063 q 0.14063,-0.66211 0.46289,-1.0664 0.32227,-0.41016 0.93164,-0.62696 0.60938,-0.22265 1.41211,-0.22265 0.79688,0 1.29493,0.1875 0.49804,0.1875 0.73242,0.47461 0.23437,0.28125 0.32812,0.71484 0.0527,0.26953 0.0527,0.97266 v 1.40625 q 0,1.4707 0.0644,1.86328 0.0703,0.38672 0.26953,0.74414 h -1.10156 q -0.16406,-0.32813 -0.21094,-0.76758 z m -0.0879,-2.35547 q -0.57422,0.23438 -1.72266,0.39844 -0.65039,0.0937 -0.91992,0.21094 -0.26953,0.11719 -0.41601,0.3457 -0.14649,0.22266 -0.14649,0.49805 0,0.42187 0.31641,0.70312 0.32226,0.28125 0.9375,0.28125 0.60937,0 1.08398,-0.26367 0.47461,-0.26953 0.69727,-0.73242 0.16992,-0.35742 0.16992,-1.05469 z m 2.70117,3.12305 v -8.58984 h 1.05469 v 3.08203 q 0.73828,-0.85547 1.86328,-0.85547 0.69141,0 1.20117,0.27539 0.50977,0.26953 0.72657,0.75 0.22265,0.48047 0.22265,1.39453 v 3.94336 h -1.05469 v -3.94336 q 0,-0.79102 -0.3457,-1.14844 -0.33984,-0.36328 -0.9668,-0.36328 -0.46875,0 -0.88476,0.2461 -0.41016,0.24023 -0.58594,0.65625 -0.17578,0.41601 -0.17578,1.14843 v 3.4043 z m 9.72071,-2.26758 1.05468,-0.14062 q 0.18164,0.89648 0.61524,1.29492 0.43945,0.39258 1.0664,0.39258 0.74414,0 1.25391,-0.51563 0.51562,-0.51562 0.51562,-1.27734 0,-0.72656 -0.4746,-1.19531 -0.47461,-0.47461 -1.20704,-0.47461 -0.29882,0 -0.74414,0.11718 l 0.11719,-0.92578 q 0.10547,0.0117 0.16992,0.0117 0.67383,0 1.21289,-0.35156 0.53907,-0.35156 0.53907,-1.08399 0,-0.58007 -0.39258,-0.96093 -0.39258,-0.38086 -1.01367,-0.38086 -0.61524,0 -1.02539,0.38672 -0.41016,0.38671 -0.52735,1.16015 l -1.05469,-0.1875 q 0.19336,-1.06054 0.87891,-1.64062 0.68555,-0.58594 1.70508,-0.58594 0.70312,0 1.29492,0.30469 0.5918,0.29883 0.90234,0.82031 0.31641,0.52148 0.31641,1.10742 0,0.55664 -0.29883,1.01367 -0.29883,0.45703 -0.88476,0.72657 0.76172,0.17578 1.18359,0.73242 0.42188,0.55078 0.42188,1.38281 0,1.125 -0.82032,1.91016 -0.82031,0.77929 -2.07422,0.77929 -1.13086,0 -1.88086,-0.67382 -0.74414,-0.67383 -0.8496,-1.7461 z m 6.96093,2.26758 v -8.58984 h 1.05469 v 3.08203 q 0.73828,-0.85547 1.86328,-0.85547 0.69141,0 1.20117,0.27539 0.50977,0.26953 0.72657,0.75 0.22265,0.48047 0.22265,1.39453 v 3.94336 h -1.05469 v -3.94336 q 0,-0.79102 -0.3457,-1.14844 -0.33984,-0.36328 -0.9668,-0.36328 -0.46875,0 -0.88476,0.2461 -0.41016,0.24023 -0.58594,0.65625 -0.17578,0.41601 -0.17578,1.14843 v 3.4043 z"
       id="text10"
       style="font-family:Arial;-inkscape-font-specification:Arial;white-space:pre;stroke-width:2.89134"
       transform="translate(25.870936,-264.75842)"
       aria-label=" int 13h; ah 3h " />
    <path
       d="m 746.17358,163.36751 v -1.21289 h 1.05469 v 1.21289 z m 0,7.37695 v -6.22266 h 1.05469 v 6.22266 z m 2.66016,0 v -6.22266 h 0.94922 v 0.88477 q 0.68555,-1.02539 1.98047,-1.02539 0.5625,0 1.03125,0.20508 0.47461,0.19922 0.70898,0.52734 0.23438,0.32813 0.32813,0.7793 0.0586,0.29297 0.0586,1.02539 v 3.82617 h -1.05469 v -3.78516 q 0,-0.64453 -0.12304,-0.96093 -0.12305,-0.32227 -0.43946,-0.50977 -0.31054,-0.19336 -0.73242,-0.19336 -0.67383,0 -1.16601,0.42774 -0.48633,0.42773 -0.48633,1.62304 v 3.39844 z m 8.97656,-0.94336 0.15235,0.93164 q -0.44532,0.0937 -0.79688,0.0937 -0.57422,0 -0.89062,-0.18164 -0.31641,-0.18164 -0.44532,-0.47461 -0.1289,-0.29883 -0.1289,-1.24804 v -3.58008 h -0.77344 v -0.82032 h 0.77344 v -1.54101 l 1.04883,-0.63281 v 2.17382 h 1.06054 v 0.82032 h -1.06054 v 3.63867 q 0,0.45117 0.0527,0.58008 0.0586,0.1289 0.18164,0.20508 0.12891,0.0762 0.36328,0.0762 0.17578,0 0.46289,-0.041 z m 8.04492,0.94336 h -1.05468 v -6.7207 q -0.38086,0.36328 -1.00196,0.72656 -0.61523,0.36328 -1.10742,0.54492 v -1.01953 q 0.88477,-0.41601 1.54688,-1.00781 0.66211,-0.5918 0.9375,-1.14844 h 0.67968 z m 2.70704,-2.26758 1.05468,-0.14062 q 0.18164,0.89648 0.61524,1.29492 0.43945,0.39258 1.0664,0.39258 0.74414,0 1.25391,-0.51563 0.51563,-0.51562 0.51563,-1.27734 0,-0.72656 -0.47461,-1.19531 -0.47461,-0.47461 -1.20704,-0.47461 -0.29882,0 -0.74414,0.11718 l 0.11719,-0.92578 q 0.10547,0.0117 0.16992,0.0117 0.67383,0 1.21289,-0.35156 0.53907,-0.35156 0.53907,-1.08398 0,-0.58008 -0.39258,-0.96094 -0.39258,-0.38086 -1.01367,-0.38086 -0.61524,0 -1.02539,0.38672 -0.41016,0.38672 -0.52735,1.16015 l -1.05469,-0.1875 q 0.19336,-1.06054 0.87891,-1.64062 0.68555,-0.58594 1.70508,-0.58594 0.70312,0 1.29492,0.30469 0.5918,0.29883 0.90234,0.82031 0.31641,0.52149 0.31641,1.10742 0,0.55664 -0.29883,1.01367 -0.29883,0.45704 -0.88476,0.72657 0.76172,0.17578 1.18359,0.73242 0.42188,0.55078 0.42188,1.38281 0,1.125 -0.82032,1.91016 -0.82031,0.77929 -2.07422,0.77929 -1.13085,0 -1.88085,-0.67382 -0.74415,-0.67383 -0.84961,-1.7461 z m 6.96093,2.26758 v -8.58984 h 1.05469 v 3.08203 q 0.73828,-0.85547 1.86328,-0.85547 0.69141,0 1.20117,0.27539 0.50977,0.26953 0.72657,0.75 0.22265,0.48047 0.22265,1.39453 v 3.94336 h -1.05468 v -3.94336 q 0,-0.79101 -0.34571,-1.14844 -0.33984,-0.36328 -0.96679,-0.36328 -0.46875,0 -0.88477,0.2461 -0.41016,0.24023 -0.58594,0.65625 -0.17578,0.41601 -0.17578,1.14843 v 3.4043 z m 6.94922,-5.02148 v -1.20118 h 1.20117 v 1.20118 z m 0,5.02148 v -1.20117 h 1.20117 v 1.20117 q 0,0.66211 -0.23437,1.06641 -0.23438,0.41015 -0.74414,0.63281 l -0.29297,-0.45117 q 0.33398,-0.14649 0.49219,-0.4336 0.1582,-0.28125 0.17578,-0.81445 z m 10.45313,-0.76758 q -0.58594,0.49805 -1.13086,0.70313 -0.53906,0.20508 -1.16016,0.20508 -1.02539,0 -1.57617,-0.49805 -0.55078,-0.50391 -0.55078,-1.2832 0,-0.45704 0.20508,-0.83204 0.21093,-0.38085 0.54492,-0.60937 0.33984,-0.22852 0.76172,-0.3457 0.31054,-0.082 0.9375,-0.15821 1.27734,-0.15234 1.88086,-0.36328 0.006,-0.21679 0.006,-0.27539 0,-0.64453 -0.29883,-0.9082 -0.4043,-0.35742 -1.20117,-0.35742 -0.74414,0 -1.10157,0.26367 -0.35156,0.25781 -0.52148,0.91992 l -1.03125,-0.14062 q 0.14062,-0.66211 0.46289,-1.06641 0.32227,-0.41016 0.93164,-0.62695 0.60938,-0.22266 1.41211,-0.22266 0.79687,0 1.29492,0.1875 0.49805,0.1875 0.73242,0.47461 0.23438,0.28125 0.32813,0.71484 0.0527,0.26953 0.0527,0.97266 v 1.40625 q 0,1.4707 0.0645,1.86328 0.0703,0.38672 0.26953,0.74414 h -1.10157 q -0.16406,-0.32812 -0.21093,-0.76758 z m -0.0879,-2.35547 q -0.57422,0.23438 -1.72266,0.39844 -0.65039,0.0937 -0.91992,0.21094 -0.26953,0.11719 -0.41602,0.3457 -0.14648,0.22266 -0.14648,0.49805 0,0.42187 0.3164,0.70312 0.32227,0.28125 0.9375,0.28125 0.60938,0 1.08399,-0.26367 0.47461,-0.26953 0.69726,-0.73242 0.16993,-0.35742 0.16993,-1.05469 z m 2.70117,3.12305 v -8.58984 h 1.05469 v 3.08203 q 0.73828,-0.85547 1.86328,-0.85547 0.6914,0 1.20117,0.27539 0.50976,0.26953 0.72656,0.75 0.22266,0.48047 0.22266,1.39453 v 3.94336 h -1.05469 v -3.94336 q 0,-0.79101 -0.3457,-1.14844 -0.33985,-0.36328 -0.9668,-0.36328 -0.46875,0 -0.88477,0.2461 -0.41015,0.24023 -0.58593,0.65625 -0.17578,0.41601 -0.17578,1.14843 v 3.4043 z m 9.71484,-4.23633 q 0,-1.52343 0.31055,-2.44922 0.31641,-0.93164 0.93164,-1.43554 0.62109,-0.50391 1.55859,-0.50391 0.69141,0 1.21289,0.28125 0.52149,0.27539 0.86133,0.80274 0.33985,0.52148 0.53321,1.27734 0.19335,0.75 0.19335,2.02734 0,1.51172 -0.31054,2.44336 -0.31055,0.92578 -0.93164,1.43555 -0.61524,0.50391 -1.5586,0.50391 -1.24218,0 -1.95117,-0.89063 -0.84961,-1.07227 -0.84961,-3.49219 z m 1.08399,0 q 0,2.11524 0.49218,2.81836 0.49805,0.69727 1.22461,0.69727 0.72657,0 1.21875,-0.70313 0.49805,-0.70312 0.49805,-2.8125 0,-2.12109 -0.49805,-2.81836 -0.49218,-0.69726 -1.23047,-0.69726 -0.72656,0 -1.16015,0.61523 -0.54492,0.78516 -0.54492,2.90039 z m 11.13281,3.22266 v 1.01367 h -5.67774 q -0.0117,-0.38086 0.12305,-0.73242 0.2168,-0.58008 0.69141,-1.14258 0.48047,-0.5625 1.38281,-1.30078 1.40039,-1.14844 1.89258,-1.81641 0.49219,-0.67382 0.49219,-1.27148 0,-0.62695 -0.45118,-1.05469 -0.44531,-0.43359 -1.16601,-0.43359 -0.76172,0 -1.21875,0.45703 -0.45703,0.45703 -0.46289,1.26562 l -1.08399,-0.11132 q 0.11133,-1.21289 0.83789,-1.84571 0.72657,-0.63867 1.95118,-0.63867 1.23632,0 1.95703,0.68555 0.7207,0.68554 0.7207,1.69922 0,0.51562 -0.21094,1.01367 -0.21093,0.49805 -0.70312,1.04883 -0.48633,0.55078 -1.62305,1.51172 -0.94922,0.79687 -1.21875,1.08398 -0.26953,0.28125 -0.44531,0.56836 z m 1.42383,1.01367 v -8.58984 h 1.05468 v 3.08203 q 0.73829,-0.85547 1.86329,-0.85547 0.6914,0 1.20117,0.27539 0.50976,0.26953 0.72656,0.75 0.22266,0.48047 0.22266,1.39453 v 3.94336 h -1.05469 v -3.94336 q 0,-0.79101 -0.3457,-1.14844 -0.33985,-0.36328 -0.9668,-0.36328 -0.46875,0 -0.88477,0.2461 -0.41015,0.24023 -0.58593,0.65625 -0.17579,0.41601 -0.17579,1.14843 v 3.4043 z"
       id="text12"
       style="font-family:Arial;-inkscape-font-specification:Arial;stroke-width:2.89134"
       aria-label="int 13h; ah 02h" />
    <rect
       style="fill:none;fill-opacity:1;stroke:#000000;stroke-width:2.89134;stroke-dasharray:none;stroke-opacity:1"
       id="rect12"
       width="90.792343"
       height="27.929035"
       x="739.51831"
       y="153.69649" />
    <rect
       style="fill:none;fill-opacity:1;stroke:#000000;stroke-width:2.89134;stroke-dasharray:none;stroke-opacity:1"
       id="rect13"
       width="87.375465"
       height="30.411087"
       x="720.96936"
       y="77.672935" />
    <rect
       style="fill:none;fill-opacity:1;stroke:#000000;stroke-width:2.12414;stroke-dasharray:none;stroke-opacity:1"
       id="rect13-4"
       width="58.122612"
       height="24.674372"
       x="365.00974"
       y="117.31618" />
    <path
       d="m 482.78711,389.79538 v -8.58984 h 3.80859 q 1.14844,0 1.7461,0.23437 0.59765,0.22852 0.95507,0.81446 0.35743,0.58593 0.35743,1.29492 0,0.91406 -0.5918,1.54101 -0.5918,0.62696 -1.82813,0.79688 0.45118,0.21679 0.68555,0.42773 0.49805,0.45703 0.94336,1.14258 l 1.49414,2.33789 h -1.42969 l -1.13671,-1.78711 q -0.49805,-0.77344 -0.82032,-1.18359 -0.32226,-0.41016 -0.58008,-0.57422 -0.25195,-0.16406 -0.51562,-0.22852 -0.19336,-0.041 -0.63281,-0.041 h -1.31836 v 3.81445 z m 1.13672,-4.79883 h 2.44336 q 0.77929,0 1.21875,-0.1582 0.43945,-0.16406 0.66797,-0.51563 0.22851,-0.35742 0.22851,-0.77343 0,-0.60938 -0.44531,-1.00196 -0.43945,-0.39257 -1.39453,-0.39257 h -2.71875 z m 11.4375,4.03125 q -0.58594,0.49805 -1.13086,0.70313 -0.53906,0.20508 -1.16016,0.20508 -1.02539,0 -1.57617,-0.49805 -0.55078,-0.50391 -0.55078,-1.2832 0,-0.45704 0.20508,-0.83204 0.21093,-0.38085 0.54492,-0.60937 0.33984,-0.22852 0.76172,-0.3457 0.31054,-0.082 0.9375,-0.15821 1.27734,-0.15234 1.88086,-0.36328 0.006,-0.21679 0.006,-0.27539 0,-0.64453 -0.29883,-0.9082 -0.4043,-0.35742 -1.20117,-0.35742 -0.74414,0 -1.10157,0.26367 -0.35156,0.25781 -0.52148,0.91992 l -1.03125,-0.14062 q 0.14062,-0.66211 0.46289,-1.06641 0.32227,-0.41016 0.93164,-0.62695 0.60938,-0.22266 1.41211,-0.22266 0.79688,0 1.29492,0.1875 0.49805,0.1875 0.73242,0.47461 0.23438,0.28125 0.32813,0.71484 0.0527,0.26953 0.0527,0.97266 v 1.40625 q 0,1.4707 0.0645,1.86328 0.0703,0.38672 0.26953,0.74414 h -1.10156 q -0.16407,-0.32812 -0.21094,-0.76758 z m -0.0879,-2.35547 q -0.57422,0.23438 -1.72266,0.39844 -0.65039,0.0937 -0.91992,0.21094 -0.26953,0.11719 -0.41602,0.3457 -0.14648,0.22266 -0.14648,0.49805 0,0.42187 0.31641,0.70312 0.32226,0.28125 0.9375,0.28125 0.60937,0 1.08398,-0.26367 0.47461,-0.26953 0.69727,-0.73242 0.16992,-0.35742 0.16992,-1.05469 z m 2.70117,3.12305 v -6.22266 h 0.94922 v 0.88477 q 0.68554,-1.02539 1.98047,-1.02539 0.5625,0 1.03125,0.20508 0.47461,0.19922 0.70898,0.52734 0.23438,0.32813 0.32813,0.7793 0.0586,0.29297 0.0586,1.02539 v 3.82617 h -1.05469 v -3.78516 q 0,-0.64453 -0.12304,-0.96093 -0.12305,-0.32227 -0.43946,-0.50977 -0.31054,-0.19336 -0.73242,-0.19336 -0.67383,0 -1.16602,0.42774 -0.48632,0.42773 -0.48632,1.62304 v 3.39844 z m 10.71094,0 v -0.78516 q -0.5918,0.92579 -1.74024,0.92579 -0.74414,0 -1.37109,-0.41016 -0.6211,-0.41016 -0.9668,-1.14258 -0.33984,-0.73828 -0.33984,-1.69336 0,-0.93164 0.31054,-1.6875 0.31055,-0.76172 0.93165,-1.16601 0.62109,-0.4043 1.38867,-0.4043 0.5625,0 1.00195,0.24023 0.43945,0.23438 0.71484,0.61524 v -3.08203 h 1.04883 v 8.58984 z m -3.33399,-3.10547 q 0,1.19531 0.50391,1.78711 0.5039,0.5918 1.18945,0.5918 0.69141,0 1.17188,-0.5625 0.48632,-0.56836 0.48632,-1.72852 0,-1.27734 -0.49218,-1.875 -0.49219,-0.59765 -1.21289,-0.59765 -0.70313,0 -1.17774,0.57422 -0.46875,0.57421 -0.46875,1.81054 z m 5.57813,-0.006 q 0,-1.72851 0.96093,-2.56054 0.80274,-0.69141 1.95704,-0.69141 1.2832,0 2.09765,0.84375 0.81446,0.83789 0.81446,2.32031 0,1.20117 -0.36329,1.89258 -0.35742,0.68555 -1.04882,1.06641 -0.68555,0.38086 -1.5,0.38086 -1.30664,0 -2.11524,-0.83789 -0.80273,-0.8379 -0.80273,-2.41407 z m 1.08398,0 q 0,1.19532 0.52149,1.79297 0.52148,0.5918 1.3125,0.5918 0.78515,0 1.30664,-0.59766 0.52148,-0.59765 0.52148,-1.82226 0,-1.1543 -0.52734,-1.7461 -0.52149,-0.59765 -1.30078,-0.59765 -0.79102,0 -1.3125,0.59179 -0.52149,0.5918 -0.52149,1.78711 z m 5.98242,3.11133 v -6.22266 h 0.94336 v 0.87305 q 0.29297,-0.45703 0.7793,-0.73242 0.48633,-0.28125 1.10742,-0.28125 0.69141,0 1.13086,0.28711 0.44531,0.28711 0.62695,0.80273 0.73829,-1.08984 1.92188,-1.08984 0.92578,0 1.42383,0.51562 0.49804,0.50977 0.49804,1.57618 v 4.27148 h -1.04882 v -3.91992 q 0,-0.63281 -0.10547,-0.9082 -0.0996,-0.28125 -0.36914,-0.45118 -0.26953,-0.16992 -0.63282,-0.16992 -0.65625,0 -1.08984,0.43946 -0.43359,0.43359 -0.43359,1.39453 v 3.61523 h -1.05469 v -4.04297 q 0,-0.70312 -0.25781,-1.05469 -0.25782,-0.35156 -0.84375,-0.35156 -0.44532,0 -0.82618,0.23438 -0.375,0.23437 -0.54492,0.68554 -0.16992,0.45118 -0.16992,1.30079 v 3.22851 z m 11.85938,0 3.29883,-8.58984 h 1.22461 l 3.51562,8.58984 h -1.29492 l -1.00195,-2.60156 h -3.5918 l -0.94336,2.60156 z m 2.47851,-3.52734 h 2.91211 l -0.89648,-2.37891 q -0.41016,-1.08398 -0.60938,-1.78125 -0.16406,0.82617 -0.46289,1.64063 z m 10.39454,1.24804 1.0371,0.13477 q -0.16992,1.07227 -0.87304,1.68164 -0.69727,0.60352 -1.7168,0.60352 -1.27734,0 -2.05664,-0.83204 -0.77344,-0.83789 -0.77344,-2.39648 0,-1.00781 0.33399,-1.76367 0.33398,-0.75586 1.01367,-1.13086 0.68555,-0.38086 1.48828,-0.38086 1.01367,0 1.6582,0.51562 0.64453,0.50977 0.82618,1.45313 l -1.0254,0.1582 q -0.14648,-0.62695 -0.52148,-0.94336 -0.36914,-0.3164 -0.89648,-0.3164 -0.79688,0 -1.29493,0.57422 -0.49804,0.56836 -0.49804,1.80468 0,1.25391 0.48047,1.82227 0.48046,0.56836 1.2539,0.56836 0.6211,0 1.03711,-0.38086 0.41602,-0.38086 0.52735,-1.17188 z m 6,0 1.0371,0.13477 q -0.16992,1.07227 -0.87304,1.68164 -0.69727,0.60352 -1.7168,0.60352 -1.27734,0 -2.05664,-0.83204 -0.77344,-0.83789 -0.77344,-2.39648 0,-1.00781 0.33399,-1.76367 0.33398,-0.75586 1.01367,-1.13086 0.68555,-0.38086 1.48828,-0.38086 1.01367,0 1.6582,0.51562 0.64453,0.50977 0.82618,1.45313 l -1.0254,0.1582 q -0.14648,-0.62695 -0.52148,-0.94336 -0.36914,-0.3164 -0.89648,-0.3164 -0.79688,0 -1.29493,0.57422 -0.49804,0.56836 -0.49804,1.80468 0,1.25391 0.48047,1.82227 0.48046,0.56836 1.2539,0.56836 0.6211,0 1.03711,-0.38086 0.41602,-0.38086 0.52735,-1.17188 z m 6.19921,0.27539 1.08985,0.13477 q -0.25781,0.95508 -0.95508,1.48242 -0.69727,0.52735 -1.78125,0.52735 -1.36523,0 -2.16797,-0.83789 -0.79687,-0.84375 -0.79687,-2.36133 0,-1.57032 0.80859,-2.4375 0.80859,-0.86719 2.09766,-0.86719 1.24804,0 2.03906,0.84961 0.79101,0.84961 0.79101,2.39062 0,0.0937 -0.006,0.28125 h -4.64062 q 0.0586,1.02539 0.58008,1.57032 0.52148,0.54492 1.30078,0.54492 0.58008,0 0.99023,-0.30469 0.41016,-0.30469 0.65039,-0.97266 z m -3.46289,-1.70507 h 3.47461 q -0.0703,-0.78516 -0.39843,-1.17774 -0.50391,-0.60937 -1.30665,-0.60937 -0.72656,0 -1.2246,0.48633 -0.49219,0.48632 -0.54493,1.30078 z m 5.45508,1.85156 1.04297,-0.16406 q 0.0879,0.62695 0.48633,0.96093 0.4043,0.33399 1.125,0.33399 0.72656,0 1.07812,-0.29297 0.35157,-0.29883 0.35157,-0.69727 0,-0.35742 -0.31055,-0.5625 -0.2168,-0.14062 -1.07813,-0.35742 -1.16015,-0.29297 -1.61132,-0.5039 -0.44532,-0.2168 -0.67969,-0.5918 -0.22852,-0.38086 -0.22852,-0.83789 0,-0.41602 0.1875,-0.76758 0.19336,-0.35742 0.52149,-0.5918 0.24609,-0.18164 0.66797,-0.30468 0.42773,-0.12891 0.91406,-0.12891 0.73242,0 1.2832,0.21094 0.55664,0.21093 0.82031,0.57422 0.26368,0.35742 0.36329,0.96093 l -1.03125,0.14063 q -0.0703,-0.48047 -0.41016,-0.75 -0.33399,-0.26953 -0.94922,-0.26953 -0.72656,0 -1.03711,0.24023 -0.31055,0.24024 -0.31055,0.5625 0,0.20508 0.12891,0.36914 0.12891,0.16992 0.4043,0.28125 0.1582,0.0586 0.93164,0.26953 1.11914,0.29883 1.55859,0.49219 0.44531,0.1875 0.69727,0.55078 0.25195,0.36328 0.25195,0.90235 0,0.52734 -0.31055,0.99609 -0.30468,0.46289 -0.88476,0.7207 -0.58008,0.25196 -1.3125,0.25196 -1.21289,0 -1.85156,-0.50391 -0.63282,-0.50391 -0.8086,-1.49414 z m 6,0 1.04297,-0.16406 q 0.0879,0.62695 0.48633,0.96093 0.4043,0.33399 1.125,0.33399 0.72656,0 1.07812,-0.29297 0.35157,-0.29883 0.35157,-0.69727 0,-0.35742 -0.31055,-0.5625 -0.2168,-0.14062 -1.07813,-0.35742 -1.16015,-0.29297 -1.61132,-0.5039 -0.44532,-0.2168 -0.67969,-0.5918 -0.22852,-0.38086 -0.22852,-0.83789 0,-0.41602 0.1875,-0.76758 0.19336,-0.35742 0.52149,-0.5918 0.24609,-0.18164 0.66797,-0.30468 0.42773,-0.12891 0.91406,-0.12891 0.73242,0 1.2832,0.21094 0.55664,0.21093 0.82031,0.57422 0.26368,0.35742 0.36329,0.96093 l -1.03125,0.14063 q -0.0703,-0.48047 -0.41016,-0.75 -0.33399,-0.26953 -0.94922,-0.26953 -0.72656,0 -1.03711,0.24023 -0.31055,0.24024 -0.31055,0.5625 0,0.20508 0.12891,0.36914 0.12891,0.16992 0.4043,0.28125 0.1582,0.0586 0.93164,0.26953 1.11914,0.29883 1.55859,0.49219 0.44531,0.1875 0.69727,0.55078 0.25195,0.36328 0.25195,0.90235 0,0.52734 -0.31055,0.99609 -0.30468,0.46289 -0.88476,0.7207 -0.58008,0.25196 -1.3125,0.25196 -1.21289,0 -1.85156,-0.50391 -0.63282,-0.50391 -0.8086,-1.49414 z m 9.85547,1.85742 v -8.58984 h 1.71094 l 2.0332,6.08203 q 0.28125,0.84961 0.41016,1.27148 0.14648,-0.46875 0.45703,-1.37695 l 2.05664,-5.97656 h 1.5293 v 8.58984 h -1.09571 v -7.18945 l -2.49609,7.18945 h -1.02539 l -2.48438,-7.3125 v 7.3125 z m 14.15625,-2.00391 1.08984,0.13477 q -0.25781,0.95508 -0.95507,1.48242 -0.69727,0.52735 -1.78125,0.52735 -1.36524,0 -2.16797,-0.83789 -0.79688,-0.84375 -0.79688,-2.36133 0,-1.57032 0.8086,-2.4375 0.80859,-0.86719 2.09765,-0.86719 1.24805,0 2.03906,0.84961 0.79102,0.84961 0.79102,2.39062 0,0.0937 -0.006,0.28125 h -4.64062 q 0.0586,1.02539 0.58007,1.57032 0.52149,0.54492 1.30079,0.54492 0.58007,0 0.99023,-0.30469 0.41016,-0.30469 0.65039,-0.97266 z m -3.46289,-1.70507 h 3.47461 q -0.0703,-0.78516 -0.39844,-1.17774 -0.5039,-0.60937 -1.30664,-0.60937 -0.72656,0 -1.22461,0.48633 -0.49219,0.48632 -0.54492,1.30078 z m 5.87695,3.70898 v -6.22266 h 0.94336 v 0.87305 q 0.29297,-0.45703 0.7793,-0.73242 0.48633,-0.28125 1.10742,-0.28125 0.69141,0 1.13086,0.28711 0.44531,0.28711 0.62695,0.80273 0.73828,-1.08984 1.92188,-1.08984 0.92578,0 1.42383,0.51562 0.49804,0.50977 0.49804,1.57618 v 4.27148 h -1.04882 v -3.91992 q 0,-0.63281 -0.10547,-0.9082 -0.0996,-0.28125 -0.36914,-0.45118 -0.26954,-0.16992 -0.63282,-0.16992 -0.65625,0 -1.08984,0.43946 -0.43359,0.43359 -0.43359,1.39453 v 3.61523 h -1.05469 v -4.04297 q 0,-0.70312 -0.25781,-1.05469 -0.25782,-0.35156 -0.84375,-0.35156 -0.44532,0 -0.82618,0.23438 -0.375,0.23437 -0.54492,0.68554 -0.16992,0.45118 -0.16992,1.30079 v 3.22851 z m 9.60352,-3.11133 q 0,-1.72851 0.96094,-2.56054 0.80273,-0.69141 1.95703,-0.69141 1.2832,0 2.09765,0.84375 0.81446,0.83789 0.81446,2.32031 0,1.20117 -0.36328,1.89258 -0.35743,0.68555 -1.04883,1.06641 -0.68555,0.38086 -1.5,0.38086 -1.30664,0 -2.11524,-0.83789 -0.80273,-0.8379 -0.80273,-2.41407 z m 1.08398,0 q 0,1.19532 0.52149,1.79297 0.52148,0.5918 1.3125,0.5918 0.78515,0 1.30664,-0.59766 0.52148,-0.59765 0.52148,-1.82226 0,-1.1543 -0.52734,-1.7461 -0.52149,-0.59765 -1.30078,-0.59765 -0.79102,0 -1.3125,0.59179 -0.52149,0.5918 -0.52149,1.78711 z m 5.97071,3.11133 v -6.22266 h 0.94921 v 0.94336 q 0.36329,-0.66211 0.66797,-0.87304 0.31055,-0.21094 0.67969,-0.21094 0.5332,0 1.08399,0.33984 l -0.36329,0.97852 q -0.38671,-0.22852 -0.77343,-0.22852 -0.34571,0 -0.6211,0.21094 -0.27539,0.20508 -0.39258,0.57422 -0.17578,0.5625 -0.17578,1.23047 v 3.25781 z m 3.96093,2.39649 -0.11718,-0.99024 q 0.3457,0.0937 0.60351,0.0937 0.35156,0 0.5625,-0.11719 0.21094,-0.11718 0.3457,-0.32812 0.0996,-0.1582 0.32227,-0.78516 0.0293,-0.0879 0.0937,-0.25781 l -2.36133,-6.23438 h 1.13672 l 1.29492,3.60352 q 0.25196,0.68555 0.45117,1.44141 0.18165,-0.72657 0.4336,-1.41797 l 1.33008,-3.62696 h 1.05468 l -2.36718,6.32813 q -0.38086,1.02539 -0.5918,1.41211 -0.28125,0.52148 -0.64453,0.76172 -0.36328,0.24609 -0.86719,0.24609 -0.30469,0 -0.67969,-0.1289 z"
       id="text13"
       style="font-family:Arial;-inkscape-font-specification:Arial;white-space:pre;stroke-width:2.89134"
       transform="translate(36.059578,-298.37073)"
       aria-label="Random Access Memory" />
    <path
       d="m 488.89844,386.78366 1.13672,0.28711 q -0.35743,1.40039 -1.28907,2.13867 -0.92578,0.73243 -2.26757,0.73243 -1.38868,0 -2.26172,-0.5625 -0.86719,-0.56836 -1.32422,-1.64063 -0.45117,-1.07227 -0.45117,-2.30273 0,-1.3418 0.50976,-2.33789 0.51563,-1.00196 1.45899,-1.51758 0.94921,-0.52149 2.08593,-0.52149 1.28907,0 2.16797,0.65625 0.87891,0.65625 1.22461,1.84571 l -1.11914,0.26367 q -0.29883,-0.9375 -0.86719,-1.36524 -0.56836,-0.42773 -1.42968,-0.42773 -0.99024,0 -1.65821,0.47461 -0.66211,0.47461 -0.93164,1.27734 -0.26953,0.79688 -0.26953,1.64649 0,1.0957 0.31641,1.91601 0.32226,0.81446 0.99609,1.21875 0.67383,0.4043 1.45899,0.4043 0.95507,0 1.61718,-0.55078 0.66211,-0.55078 0.89649,-1.63477 z m 2.53711,3.01172 v -8.58984 h 3.24023 q 0.85547,0 1.30664,0.082 0.63281,0.10547 1.06055,0.4043 0.42773,0.29296 0.68555,0.82617 0.26367,0.5332 0.26367,1.17187 0,1.09571 -0.69727,1.85742 -0.69726,0.75586 -2.51953,0.75586 h -2.20312 v 3.49219 z m 1.13672,-4.50586 h 2.2207 q 1.10156,0 1.56445,-0.41015 0.46289,-0.41016 0.46289,-1.1543 0,-0.53906 -0.27539,-0.91992 -0.26953,-0.38672 -0.71484,-0.50977 -0.28711,-0.0762 -1.06055,-0.0762 h -2.19726 z m 12.5039,-4.08398 h 1.13672 v 4.96289 q 0,1.29492 -0.29297,2.05664 -0.29297,0.76172 -1.06055,1.24219 -0.76171,0.47461 -2.0039,0.47461 -1.20703,0 -1.97461,-0.41602 -0.76758,-0.41602 -1.0957,-1.20117 -0.32813,-0.79102 -0.32813,-2.15625 v -4.96289 h 1.13672 v 4.95703 q 0,1.11914 0.20508,1.65234 0.21094,0.52735 0.71484,0.81446 0.50977,0.2871 1.24219,0.2871 1.25391,0 1.78711,-0.56835 0.5332,-0.56836 0.5332,-2.18555 z"
       id="text13-2"
       style="font-family:Arial;-inkscape-font-specification:Arial;white-space:pre;stroke-width:2.89134"
       transform="translate(-294.03427,-307.10706)"
       aria-label="CPU" />
    <path
       d="m 365.9707,421.54929 v -6.22266 h 0.94336 v 0.87305 q 0.29297,-0.45703 0.7793,-0.73242 0.48633,-0.28125 1.10742,-0.28125 0.69141,0 1.13086,0.28711 0.44531,0.2871 0.62695,0.80273 0.73828,-1.08984 1.92188,-1.08984 0.92578,0 1.42383,0.51562 0.49804,0.50977 0.49804,1.57617 v 4.27149 h -1.04882 v -3.91992 q 0,-0.63282 -0.10547,-0.90821 -0.0996,-0.28125 -0.36914,-0.45117 -0.26954,-0.16992 -0.63282,-0.16992 -0.65625,0 -1.08984,0.43945 -0.43359,0.4336 -0.43359,1.39453 v 3.61524 h -1.05469 v -4.04297 q 0,-0.70313 -0.25781,-1.05469 -0.25782,-0.35156 -0.84375,-0.35156 -0.44532,0 -0.82618,0.23437 -0.375,0.23438 -0.54492,0.68555 -0.16992,0.45117 -0.16992,1.30078 v 3.22852 z m 9.60352,-3.11133 q 0,-1.72852 0.96094,-2.56055 0.80273,-0.6914 1.95703,-0.6914 1.2832,0 2.09765,0.84375 0.81446,0.83789 0.81446,2.32031 0,1.20117 -0.36328,1.89258 -0.35743,0.68554 -1.04883,1.0664 -0.68555,0.38086 -1.5,0.38086 -1.30664,0 -2.11524,-0.83789 -0.80273,-0.83789 -0.80273,-2.41406 z m 1.08398,0 q 0,1.19531 0.52149,1.79297 0.52148,0.59179 1.3125,0.59179 0.78515,0 1.30664,-0.59765 0.52148,-0.59766 0.52148,-1.82227 0,-1.15429 -0.52734,-1.74609 -0.52149,-0.59766 -1.30078,-0.59766 -0.79102,0 -1.3125,0.5918 -0.52149,0.5918 -0.52149,1.78711 z m 7.71094,3.11133 -2.36719,-6.22266 h 1.11328 l 1.33594,3.72656 q 0.2168,0.60352 0.39844,1.25391 0.14062,-0.49219 0.39258,-1.18359 l 1.38281,-3.79688 h 1.08398 l -2.35546,6.22266 z"
       id="text14"
       style="font-family:Arial;-inkscape-font-specification:Arial;white-space:pre;stroke-width:2.92157"
       transform="translate(17.899294,-288.78458)"
       aria-label="mov" />
    <rect
       style="fill:#000000;fill-opacity:1;stroke:none;stroke-width:2.92157;stroke-dasharray:none;stroke-opacity:1"
       id="rect16"
       width="210.87253"
       height="20.579172"
       x="101.53122"
       y="141.54027" />
    <path
       style="font-family:Arial;-inkscape-font-specification:Arial;fill:#ffffff;stroke-width:2.92157"
       d="m 180.51277,154.86208 v -8.58985 h 3.8086 q 1.14843,0 1.74609,0.23438 0.59766,0.22851 0.95508,0.81445 0.35742,0.58594 0.35742,1.29492 0,0.91406 -0.5918,1.54102 -0.59179,0.62695 -1.82812,0.79687 0.45117,0.2168 0.68554,0.42774 0.49805,0.45703 0.94336,1.14258 l 1.49414,2.33789 h -1.42968 l -1.13672,-1.78711 q -0.49805,-0.77344 -0.82031,-1.1836 -0.32227,-0.41015 -0.58008,-0.57422 -0.25196,-0.16406 -0.51563,-0.22851 -0.19336,-0.041 -0.63281,-0.041 h -1.31836 v 3.81446 z m 1.13672,-4.79883 h 2.44336 q 0.7793,0 1.21875,-0.15821 0.43945,-0.16406 0.66797,-0.51562 0.22851,-0.35742 0.22851,-0.77344 0,-0.60937 -0.44531,-1.00195 -0.43945,-0.39258 -1.39453,-0.39258 h -2.71875 z m 11.63672,2.79492 1.08984,0.13477 q -0.25781,0.95507 -0.95508,1.48242 -0.69726,0.52734 -1.78125,0.52734 -1.36523,0 -2.16796,-0.83789 -0.79688,-0.84375 -0.79688,-2.36133 0,-1.57031 0.80859,-2.4375 0.8086,-0.86719 2.09766,-0.86719 1.24805,0 2.03906,0.84961 0.79102,0.84961 0.79102,2.39063 0,0.0937 -0.006,0.28125 h -4.64063 q 0.0586,1.02539 0.58008,1.57031 0.52149,0.54492 1.30078,0.54492 0.58008,0 0.99024,-0.30468 0.41015,-0.30469 0.65039,-0.97266 z m -3.46289,-1.70508 h 3.47461 q -0.0703,-0.78515 -0.39844,-1.17773 -0.50391,-0.60938 -1.30664,-0.60938 -0.72656,0 -1.22461,0.48633 -0.49219,0.48633 -0.54492,1.30078 z m 5.68359,4.22461 1.02539,0.15234 q 0.0645,0.47461 0.35742,0.69141 0.39258,0.29297 1.07227,0.29297 0.73242,0 1.13086,-0.29297 0.39844,-0.29297 0.53906,-0.82031 0.082,-0.32227 0.0762,-1.35352 -0.6914,0.81446 -1.72265,0.81446 -1.28321,0 -1.98633,-0.92579 -0.70313,-0.92578 -0.70313,-2.2207 0,-0.89062 0.32227,-1.64062 0.32227,-0.75586 0.93164,-1.16602 0.61524,-0.41016 1.44141,-0.41016 1.10156,0 1.8164,0.89063 v -0.75 h 0.97266 v 5.37891 q 0,1.45312 -0.29883,2.05664 -0.29297,0.60937 -0.9375,0.96093 -0.63867,0.35157 -1.57617,0.35157 -1.11328,0 -1.79883,-0.50391 -0.68555,-0.49805 -0.66211,-1.50586 z m 0.87305,-3.73828 q 0,1.22461 0.48633,1.78711 0.48633,0.5625 1.21875,0.5625 0.72656,0 1.21875,-0.55664 0.49218,-0.5625 0.49218,-1.75781 0,-1.14258 -0.50976,-1.72266 -0.50391,-0.58008 -1.21875,-0.58008 -0.70313,0 -1.19531,0.57422 -0.49219,0.56836 -0.49219,1.69336 z m 6,-4.1543 v -1.21289 h 1.05469 v 1.21289 z m 0,7.37696 v -6.22266 h 1.05469 v 6.22266 z m 2.23828,-1.85743 1.04297,-0.16406 q 0.0879,0.62695 0.48633,0.96094 0.40429,0.33398 1.125,0.33398 0.72656,0 1.07812,-0.29297 0.35156,-0.29882 0.35156,-0.69726 0,-0.35742 -0.31054,-0.5625 -0.2168,-0.14063 -1.07813,-0.35742 -1.16015,-0.29297 -1.61133,-0.50391 -0.44531,-0.2168 -0.67968,-0.5918 -0.22852,-0.38086 -0.22852,-0.83789 0,-0.41601 0.1875,-0.76757 0.19336,-0.35743 0.52149,-0.5918 0.24609,-0.18164 0.66796,-0.30469 0.42774,-0.12891 0.91407,-0.12891 0.73242,0 1.2832,0.21094 0.55664,0.21094 0.82031,0.57422 0.26367,0.35742 0.36328,0.96094 l -1.03125,0.14062 q -0.0703,-0.48047 -0.41015,-0.75 -0.33399,-0.26953 -0.94922,-0.26953 -0.72656,0 -1.03711,0.24024 -0.31055,0.24023 -0.31055,0.5625 0,0.20507 0.12891,0.36914 0.12891,0.16992 0.4043,0.28125 0.1582,0.0586 0.93164,0.26953 1.11914,0.29883 1.55859,0.49219 0.44531,0.1875 0.69727,0.55078 0.25195,0.36328 0.25195,0.90234 0,0.52734 -0.31055,0.99609 -0.30469,0.4629 -0.88476,0.72071 -0.58008,0.25195 -1.3125,0.25195 -1.21289,0 -1.85157,-0.50391 -0.63281,-0.5039 -0.80859,-1.49414 z m 8.72461,0.91407 0.15234,0.93164 q -0.44531,0.0937 -0.79687,0.0937 -0.57422,0 -0.89063,-0.18164 -0.3164,-0.18164 -0.44531,-0.47461 -0.12891,-0.29883 -0.12891,-1.24805 v -3.58008 h -0.77343 v -0.82031 h 0.77343 v -1.54102 l 1.04883,-0.63281 v 2.17383 h 1.06055 v 0.82031 h -1.06055 v 3.63867 q 0,0.45118 0.0527,0.58008 0.0586,0.12891 0.18164,0.20508 0.1289,0.0762 0.36328,0.0762 0.17578,0 0.46289,-0.041 z m 5.29102,-1.06055 1.08984,0.13477 q -0.25781,0.95507 -0.95508,1.48242 -0.69726,0.52734 -1.78125,0.52734 -1.36523,0 -2.16797,-0.83789 -0.79687,-0.84375 -0.79687,-2.36133 0,-1.57031 0.80859,-2.4375 0.80859,-0.86719 2.09766,-0.86719 1.24804,0 2.03906,0.84961 0.79102,0.84961 0.79102,2.39063 0,0.0937 -0.006,0.28125 h -4.64063 q 0.0586,1.02539 0.58008,1.57031 0.52148,0.54492 1.30078,0.54492 0.58008,0 0.99023,-0.30468 0.41016,-0.30469 0.6504,-0.97266 z m -3.4629,-1.70508 h 3.47461 q -0.0703,-0.78515 -0.39843,-1.17773 -0.50391,-0.60938 -1.30664,-0.60938 -0.72657,0 -1.22461,0.48633 -0.49219,0.48633 -0.54493,1.30078 z m 5.86524,3.70899 v -6.22266 h 0.94922 v 0.94336 q 0.36328,-0.66211 0.66797,-0.87305 0.31054,-0.21094 0.67968,-0.21094 0.53321,0 1.08399,0.33985 l -0.36328,0.97851 q -0.38672,-0.22851 -0.77344,-0.22851 -0.3457,0 -0.62109,0.21094 -0.27539,0.20507 -0.39258,0.57421 -0.17578,0.5625 -0.17578,1.23047 v 3.25782 z m 3.58594,-1.85743 1.04297,-0.16406 q 0.0879,0.62695 0.48632,0.96094 0.4043,0.33398 1.125,0.33398 0.72657,0 1.07813,-0.29297 0.35156,-0.29882 0.35156,-0.69726 0,-0.35742 -0.31055,-0.5625 -0.21679,-0.14063 -1.07812,-0.35742 -1.16016,-0.29297 -1.61133,-0.50391 -0.44531,-0.2168 -0.67969,-0.5918 -0.22851,-0.38086 -0.22851,-0.83789 0,-0.41601 0.1875,-0.76757 0.19336,-0.35743 0.52148,-0.5918 0.2461,-0.18164 0.66797,-0.30469 0.42774,-0.12891 0.91406,-0.12891 0.73243,0 1.28321,0.21094 0.55664,0.21094 0.82031,0.57422 0.26367,0.35742 0.36328,0.96094 l -1.03125,0.14062 q -0.0703,-0.48047 -0.41016,-0.75 -0.33398,-0.26953 -0.94921,-0.26953 -0.72657,0 -1.03711,0.24024 -0.31055,0.24023 -0.31055,0.5625 0,0.20507 0.12891,0.36914 0.1289,0.16992 0.40429,0.28125 0.15821,0.0586 0.93164,0.26953 1.11914,0.29883 1.5586,0.49219 0.44531,0.1875 0.69726,0.55078 0.25196,0.36328 0.25196,0.90234 0,0.52734 -0.31055,0.99609 -0.30469,0.4629 -0.88477,0.72071 -0.58008,0.25195 -1.3125,0.25195 -1.21289,0 -1.85156,-0.50391 -0.63281,-0.5039 -0.80859,-1.49414 z"
       id="text16"
       aria-label="Registers" />
    <rect
       style="fill:#000000;fill-opacity:1;stroke:#fefefe;stroke-width:2.37669;stroke-dasharray:none;stroke-opacity:1"
       id="rect17"
       width="201.65482"
       height="26.411875"
       x="485.90591"
       y="142.78017" />
    <rect
       style="fill:#000000;fill-opacity:1;stroke:#fefefe;stroke-width:2.37669;stroke-dasharray:none;stroke-opacity:1"
       id="rect17-5"
       width="201.65482"
       height="26.411875"
       x="485.90591"
       y="169.56873" />
    <path
       style="fill:#000000;fill-opacity:1;stroke:#fefefe;stroke-width:2.39218;stroke-dasharray:none;stroke-opacity:1"
       d="m 586.73331,141.59182 v 28.78857"
       id="path17" />
    <path
       style="fill:#000000;fill-opacity:1;stroke:#fefefe;stroke-width:2.39218;stroke-dasharray:none;stroke-opacity:1"
       d="m 586.73332,168.38038 v 28.78857"
       id="path17-2" />
    <path
       style="font-family:Arial;-inkscape-font-specification:Arial;white-space:pre;fill:#ffffff;stroke-width:2.92157"
       d="m 490.80078,160.98483 3.29883,-8.58984 h 1.22461 l 3.51562,8.58984 h -1.29492 l -1.00195,-2.60156 h -3.5918 l -0.94336,2.60156 z m 2.47852,-3.52734 h 2.91211 l -0.89649,-2.37891 q -0.41015,-1.08398 -0.60937,-1.78125 -0.16407,0.82618 -0.46289,1.64063 z m 10.37109,3.52734 v -0.78515 q -0.5918,0.92578 -1.74023,0.92578 -0.74414,0 -1.3711,-0.41016 -0.62109,-0.41015 -0.96679,-1.14258 -0.33985,-0.73828 -0.33985,-1.69335 0,-0.93165 0.31055,-1.6875 0.31055,-0.76172 0.93164,-1.16602 0.62109,-0.4043 1.38867,-0.4043 0.5625,0 1.00195,0.24024 0.43946,0.23437 0.71485,0.61523 v -3.08203 h 1.04883 v 8.58984 z m -3.33398,-3.10546 q 0,1.19531 0.5039,1.7871 0.50391,0.5918 1.18946,0.5918 0.6914,0 1.17187,-0.5625 0.48633,-0.56836 0.48633,-1.72851 0,-1.27735 -0.49219,-1.875 -0.49219,-0.59766 -1.21289,-0.59766 -0.70312,0 -1.17773,0.57422 -0.46875,0.57422 -0.46875,1.81055 z m 10.00781,3.10546 v -0.78515 q -0.5918,0.92578 -1.74024,0.92578 -0.74414,0 -1.37109,-0.41016 -0.62109,-0.41015 -0.9668,-1.14258 -0.33984,-0.73828 -0.33984,-1.69335 0,-0.93165 0.31055,-1.6875 0.31054,-0.76172 0.93164,-1.16602 0.62109,-0.4043 1.38867,-0.4043 0.5625,0 1.00195,0.24024 0.43946,0.23437 0.71485,0.61523 v -3.08203 h 1.04882 v 8.58984 z m -3.33399,-3.10546 q 0,1.19531 0.50391,1.7871 0.50391,0.5918 1.18945,0.5918 0.69141,0 1.17188,-0.5625 0.48633,-0.56836 0.48633,-1.72851 0,-1.27735 -0.49219,-1.875 -0.49219,-0.59766 -1.21289,-0.59766 -0.70313,0 -1.17774,0.57422 -0.46875,0.57422 -0.46875,1.81055 z m 5.95899,3.10546 v -6.22265 h 0.94922 v 0.94336 q 0.36328,-0.66211 0.66797,-0.87305 0.31054,-0.21094 0.67968,-0.21094 0.53321,0 1.08399,0.33985 l -0.36328,0.97851 q -0.38672,-0.22851 -0.77344,-0.22851 -0.3457,0 -0.62109,0.21093 -0.2754,0.20508 -0.39258,0.57422 -0.17578,0.5625 -0.17578,1.23047 v 3.25781 z m 8.26758,-2.0039 1.08984,0.13476 q -0.25781,0.95508 -0.95508,1.48243 -0.69726,0.52734 -1.78125,0.52734 -1.36523,0 -2.16797,-0.83789 -0.79687,-0.84375 -0.79687,-2.36133 0,-1.57031 0.80859,-2.4375 0.8086,-0.86719 2.09766,-0.86719 1.24805,0 2.03906,0.84961 0.79102,0.84961 0.79102,2.39063 0,0.0937 -0.006,0.28125 h -4.64063 q 0.0586,1.02539 0.58008,1.57031 0.52148,0.54492 1.30078,0.54492 0.58008,0 0.99024,-0.30469 0.41015,-0.30468 0.65039,-0.97265 z m -3.46289,-1.70508 h 3.47461 q -0.0703,-0.78516 -0.39844,-1.17773 -0.50391,-0.60938 -1.30664,-0.60938 -0.72657,0 -1.22461,0.48633 -0.49219,0.48633 -0.54492,1.30078 z m 5.45507,1.85156 1.04297,-0.16406 q 0.0879,0.62695 0.48633,0.96094 0.4043,0.33398 1.125,0.33398 0.72656,0 1.07813,-0.29297 0.35156,-0.29883 0.35156,-0.69726 0,-0.35742 -0.31055,-0.5625 -0.2168,-0.14063 -1.07812,-0.35742 -1.16016,-0.29297 -1.61133,-0.50391 -0.44531,-0.2168 -0.67969,-0.5918 -0.22851,-0.38086 -0.22851,-0.83789 0,-0.41601 0.1875,-0.76758 0.19335,-0.35742 0.52148,-0.59179 0.24609,-0.18164 0.66797,-0.30469 0.42773,-0.12891 0.91406,-0.12891 0.73242,0 1.2832,0.21094 0.55664,0.21094 0.82032,0.57422 0.26367,0.35742 0.36328,0.96094 l -1.03125,0.14062 q -0.0703,-0.48047 -0.41016,-0.75 -0.33398,-0.26953 -0.94922,-0.26953 -0.72656,0 -1.03711,0.24023 -0.31054,0.24024 -0.31054,0.5625 0,0.20508 0.1289,0.36915 0.12891,0.16992 0.4043,0.28125 0.1582,0.0586 0.93164,0.26953 1.11914,0.29882 1.55859,0.49218 0.44532,0.1875 0.69727,0.55079 0.25195,0.36328 0.25195,0.90234 0,0.52734 -0.31054,0.99609 -0.30469,0.46289 -0.88477,0.72071 -0.58008,0.25195 -1.3125,0.25195 -1.21289,0 -1.85156,-0.50391 -0.63281,-0.5039 -0.8086,-1.49414 z m 6,0 1.04297,-0.16406 q 0.0879,0.62695 0.48633,0.96094 0.4043,0.33398 1.125,0.33398 0.72656,0 1.07813,-0.29297 0.35156,-0.29883 0.35156,-0.69726 0,-0.35742 -0.31055,-0.5625 -0.2168,-0.14063 -1.07812,-0.35742 -1.16016,-0.29297 -1.61133,-0.50391 -0.44531,-0.2168 -0.67969,-0.5918 -0.22851,-0.38086 -0.22851,-0.83789 0,-0.41601 0.1875,-0.76758 0.19335,-0.35742 0.52148,-0.59179 0.24609,-0.18164 0.66797,-0.30469 0.42773,-0.12891 0.91406,-0.12891 0.73242,0 1.2832,0.21094 0.55664,0.21094 0.82032,0.57422 0.26367,0.35742 0.36328,0.96094 l -1.03125,0.14062 q -0.0703,-0.48047 -0.41016,-0.75 -0.33398,-0.26953 -0.94922,-0.26953 -0.72656,0 -1.03711,0.24023 -0.31054,0.24024 -0.31054,0.5625 0,0.20508 0.1289,0.36915 0.12891,0.16992 0.4043,0.28125 0.1582,0.0586 0.93164,0.26953 1.11914,0.29882 1.55859,0.49218 0.44532,0.1875 0.69727,0.55079 0.25195,0.36328 0.25195,0.90234 0,0.52734 -0.31054,0.99609 -0.30469,0.46289 -0.88477,0.72071 -0.58008,0.25195 -1.3125,0.25195 -1.21289,0 -1.85156,-0.50391 -0.63281,-0.5039 -0.8086,-1.49414 z"
       id="text17"
       transform="translate(22.090282,-0.64076395)"
       aria-label="Address" />
    <text
       xml:space="preserve"
       id="text17-6"
       style="font-family:Arial;-inkscape-font-specification:Arial;white-space:pre;shape-inside:url(#rect18-2);display:inline;fill:#000000;fill-opacity:1;stroke:none;stroke-width:2.92157;stroke-dasharray:none;stroke-opacity:1"
       transform="translate(22.090282,26.553364)" />
    <path
       d="m 598.7832,158.82858 -3.32812,-8.58984 h 1.23047 l 2.23242,6.24023 q 0.26953,0.75 0.45117,1.40625 0.19922,-0.70312 0.46289,-1.40625 l 2.32031,-6.24023 h 1.16016 l -3.36328,8.58984 z m 8.58399,-0.76757 q -0.58594,0.49804 -1.13086,0.70312 -0.53906,0.20508 -1.16016,0.20508 -1.02539,0 -1.57617,-0.49805 -0.55078,-0.5039 -0.55078,-1.2832 0,-0.45703 0.20508,-0.83203 0.21093,-0.38086 0.54492,-0.60938 0.33984,-0.22851 0.76172,-0.3457 0.31054,-0.082 0.9375,-0.1582 1.27734,-0.15235 1.88086,-0.36328 0.006,-0.2168 0.006,-0.2754 0,-0.64453 -0.29883,-0.9082 -0.4043,-0.35742 -1.20117,-0.35742 -0.74414,0 -1.10157,0.26367 -0.35156,0.25781 -0.52148,0.91992 l -1.03125,-0.14062 q 0.14062,-0.66211 0.46289,-1.06641 0.32227,-0.41015 0.93164,-0.62695 0.60938,-0.22266 1.41211,-0.22266 0.79687,0 1.29492,0.1875 0.49805,0.1875 0.73242,0.47461 0.23438,0.28125 0.32813,0.71485 0.0527,0.26953 0.0527,0.97265 v 1.40625 q 0,1.47071 0.0645,1.86328 0.0703,0.38672 0.26953,0.74414 h -1.10157 q -0.16406,-0.32812 -0.21093,-0.76757 z m -0.0879,-2.35547 q -0.57422,0.23437 -1.72266,0.39843 -0.65039,0.0937 -0.91992,0.21094 -0.26953,0.11719 -0.41602,0.34571 -0.14648,0.22265 -0.14648,0.49804 0,0.42188 0.3164,0.70313 0.32227,0.28125 0.9375,0.28125 0.60938,0 1.08399,-0.26367 0.47461,-0.26954 0.69726,-0.73243 0.16993,-0.35742 0.16993,-1.05468 z m 2.67773,3.12304 v -8.58984 h 1.05469 v 8.58984 z m 6.76758,0 v -0.91406 q -0.72656,1.05469 -1.97461,1.05469 -0.55078,0 -1.03125,-0.21094 -0.47461,-0.21094 -0.70898,-0.52734 -0.22852,-0.32227 -0.32227,-0.78516 -0.0644,-0.31055 -0.0644,-0.98437 v -3.85547 h 1.05468 v 3.45117 q 0,0.82617 0.0645,1.11328 0.0996,0.41602 0.42187,0.65625 0.32227,0.23438 0.79688,0.23438 0.47461,0 0.89062,-0.24024 0.41602,-0.24609 0.58594,-0.66211 0.17578,-0.42187 0.17578,-1.21875 v -3.33398 h 1.05469 v 6.22265 z m 6.85547,-2.0039 1.08984,0.13476 q -0.25781,0.95508 -0.95508,1.48243 -0.69726,0.52734 -1.78125,0.52734 -1.36523,0 -2.16797,-0.83789 -0.79687,-0.84375 -0.79687,-2.36133 0,-1.57031 0.80859,-2.4375 0.8086,-0.86719 2.09766,-0.86719 1.24805,0 2.03906,0.84961 0.79102,0.84961 0.79102,2.39063 0,0.0937 -0.006,0.28125 h -4.64063 q 0.0586,1.02539 0.58008,1.57031 0.52149,0.54492 1.30078,0.54492 0.58008,0 0.99024,-0.30469 0.41015,-0.30468 0.65039,-0.97265 z m -3.46289,-1.70508 h 3.47461 q -0.0703,-0.78516 -0.39844,-1.17773 -0.50391,-0.60938 -1.30664,-0.60938 -0.72656,0 -1.22461,0.48633 -0.49219,0.48633 -0.54492,1.30078 z"
       id="text18"
       style="font-family:Arial;-inkscape-font-specification:Arial;white-space:pre;fill:#ffffff;stroke-width:2.92157"
       transform="translate(29.338656,1.3821291)"
       aria-label="Value" />
    <path
       d="m 515.86761,182.77759 q 0,-1.52344 0.31055,-2.44922 0.31641,-0.93164 0.93164,-1.43555 0.6211,-0.5039 1.5586,-0.5039 0.6914,0 1.21289,0.28125 0.52148,0.27539 0.86132,0.80273 0.33985,0.52148 0.53321,1.27734 0.19336,0.75 0.19336,2.02735 0,1.51172 -0.31055,2.44336 -0.31055,0.92578 -0.93164,1.43554 -0.61523,0.50391 -1.55859,0.50391 -1.24219,0 -1.95118,-0.89062 -0.84961,-1.07227 -0.84961,-3.49219 z m 1.08399,0 q 0,2.11523 0.49219,2.81836 0.49804,0.69726 1.22461,0.69726 0.72656,0 1.21875,-0.70312 0.49804,-0.70313 0.49804,-2.8125 0,-2.1211 -0.49804,-2.81836 -0.49219,-0.69727 -1.23047,-0.69727 -0.72657,0 -1.16016,0.61524 -0.54492,0.78515 -0.54492,2.90039 z m 5.17969,4.23633 2.27343,-3.23438 -2.10351,-2.98828 h 1.31836 l 0.95508,1.45898 q 0.26953,0.41602 0.43359,0.69727 0.25781,-0.38672 0.47461,-0.68555 l 1.04883,-1.4707 h 1.25976 l -2.15039,2.92969 2.31446,3.29297 h -1.29493 l -1.27734,-1.9336 -0.33984,-0.52148 -1.63477,2.45508 z m 6.48047,-7.46485 v -1.01367 h 5.56054 v 0.82031 q -0.82031,0.87305 -1.6289,2.32032 -0.80274,1.44726 -1.24219,2.97656 -0.31641,1.07812 -0.4043,2.36133 h -1.08398 q 0.0176,-1.01368 0.39843,-2.44922 0.38086,-1.43555 1.08985,-2.76563 0.71484,-1.33594 1.51758,-2.25 z m 10.95703,5.18555 1.03711,0.13476 q -0.16993,1.07227 -0.87305,1.68165 -0.69727,0.60351 -1.7168,0.60351 -1.27734,0 -2.05664,-0.83203 -0.77344,-0.83789 -0.77344,-2.39648 0,-1.00782 0.33399,-1.76368 0.33398,-0.75586 1.01367,-1.13086 0.68555,-0.38086 1.48828,-0.38086 1.01367,0 1.6582,0.51563 0.64454,0.50977 0.82618,1.45312 l -1.02539,0.15821 q -0.14649,-0.62696 -0.52149,-0.94336 -0.36914,-0.31641 -0.89648,-0.31641 -0.79688,0 -1.29492,0.57422 -0.49805,0.56836 -0.49805,1.80469 0,1.2539 0.48047,1.82226 0.48047,0.56836 1.2539,0.56836 0.6211,0 1.03711,-0.38086 0.41602,-0.38086 0.52735,-1.17187 z m 1.64648,-1.95703 q 0,-1.52344 0.31055,-2.44922 0.3164,-0.93164 0.93164,-1.43555 0.62109,-0.5039 1.55859,-0.5039 0.69141,0 1.21289,0.28125 0.52149,0.27539 0.86133,0.80273 0.33984,0.52148 0.5332,1.27734 0.19336,0.75 0.19336,2.02735 0,1.51172 -0.31054,2.44336 -0.31055,0.92578 -0.93164,1.43554 -0.61524,0.50391 -1.5586,0.50391 -1.24219,0 -1.95117,-0.89062 -0.84961,-1.07227 -0.84961,-3.49219 z m 1.08399,0 q 0,2.11523 0.49218,2.81836 0.49805,0.69726 1.22461,0.69726 0.72656,0 1.21875,-0.70312 0.49805,-0.70313 0.49805,-2.8125 0,-2.1211 -0.49805,-2.81836 -0.49219,-0.69727 -1.23047,-0.69727 -0.72656,0 -1.16015,0.61524 -0.54492,0.78515 -0.54492,2.90039 z m 5.58984,0 q 0,-1.52344 0.31055,-2.44922 0.3164,-0.93164 0.93164,-1.43555 0.62109,-0.5039 1.55859,-0.5039 0.69141,0 1.21289,0.28125 0.52149,0.27539 0.86133,0.80273 0.33984,0.52148 0.5332,1.27734 0.19336,0.75 0.19336,2.02735 0,1.51172 -0.31055,2.44336 -0.31054,0.92578 -0.93164,1.43554 -0.61523,0.50391 -1.55859,0.50391 -1.24219,0 -1.95117,-0.89062 -0.84961,-1.07227 -0.84961,-3.49219 z m 1.08398,0 q 0,2.11523 0.49219,2.81836 0.49805,0.69726 1.22461,0.69726 0.72656,0 1.21875,-0.70312 0.49805,-0.70313 0.49805,-2.8125 0,-2.1211 -0.49805,-2.81836 -0.49219,-0.69727 -1.23047,-0.69727 -0.72656,0 -1.16015,0.61524 -0.54493,0.78515 -0.54493,2.90039 z"
       id="text20"
       style="font-family:Arial;-inkscape-font-specification:Arial;fill:#ffffff;stroke-width:2.92157"
       aria-label="0x7c00" />
    <path
       d="m 609.57483,179.91235 -0.26953,-1.60547 v -1.43554 h 1.20117 v 1.43554 l -0.28125,1.60547 z m 2.45508,5.54883 v -8.58984 h 1.13672 v 3.52734 h 4.46484 v -3.52734 h 1.13672 v 8.58984 h -1.13672 v -4.04883 h -4.46484 v 4.04883 z m 8.50195,-5.54883 -0.26953,-1.60547 v -1.43554 h 1.20117 v 1.43554 l -0.28125,1.60547 z m 1.49414,5.69532 2.49024,-8.88282 h 0.84375 l -2.48438,8.88282 z m 7.80469,-0.14649 H 628.776 v -6.7207 q -0.38086,0.36328 -1.00195,0.72656 -0.61524,0.36328 -1.10742,0.54492 v -1.01953 q 0.88476,-0.41601 1.54687,-1.00781 0.66211,-0.5918 0.9375,-1.14844 h 0.67969 z m 2.70117,-2.25 1.10742,-0.0937 q 0.12305,0.8086 0.56836,1.21875 0.45117,0.4043 1.08399,0.4043 0.76171,0 1.28906,-0.57422 0.52734,-0.57422 0.52734,-1.52344 0,-0.90234 -0.50976,-1.42383 -0.50391,-0.52148 -1.32422,-0.52148 -0.50977,0 -0.91992,0.23437 -0.41016,0.22852 -0.64454,0.59766 l -0.99023,-0.12891 0.83203,-4.4121 h 4.27149 v 1.00781 h -3.42774 l -0.46289,2.30859 q 0.77344,-0.53906 1.62305,-0.53906 1.125,0 1.89844,0.7793 0.77343,0.77929 0.77343,2.0039 0,1.16602 -0.67968,2.01563 -0.82618,1.04297 -2.25586,1.04297 -1.17188,0 -1.91602,-0.65625 -0.73828,-0.65625 -0.84375,-1.74024 z m 6.17578,2.39649 2.49024,-8.88282 h 0.84375 l -2.48438,8.88282 z m 3.83203,-4.38282 q 0,-1.52343 0.31055,-2.44922 0.31641,-0.93164 0.93164,-1.43554 0.62109,-0.50391 1.55859,-0.50391 0.69141,0 1.21289,0.28125 0.52149,0.27539 0.86133,0.80274 0.33985,0.52148 0.53321,1.27734 0.19336,0.75 0.19336,2.02734 0,1.51172 -0.31055,2.44336 -0.31055,0.92578 -0.93164,1.43555 -0.61524,0.50391 -1.5586,0.50391 -1.24218,0 -1.95117,-0.89063 -0.84961,-1.07226 -0.84961,-3.49219 z m 1.08399,0 q 0,2.11524 0.49218,2.81836 0.49805,0.69727 1.22461,0.69727 0.72657,0 1.21875,-0.70313 0.49805,-0.70312 0.49805,-2.8125 0,-2.12109 -0.49805,-2.81836 -0.49218,-0.69726 -1.23046,-0.69726 -0.72657,0 -1.16016,0.61523 -0.54492,0.78516 -0.54492,2.90039 z m 5.17968,4.23633 2.27344,-3.23437 -2.10351,-2.98828 h 1.31836 l 0.95507,1.45898 q 0.26954,0.41602 0.4336,0.69727 0.25781,-0.38672 0.47461,-0.68555 l 1.04883,-1.4707 h 1.25976 l -2.15039,2.92968 2.31445,3.29297 h -1.29492 l -1.27734,-1.93359 -0.33985,-0.52149 -1.63476,2.45508 z m 6.41016,-2.25 1.10742,-0.0937 q 0.12305,0.8086 0.56836,1.21875 0.45117,0.4043 1.08399,0.4043 0.76172,0 1.28906,-0.57422 0.52734,-0.57422 0.52734,-1.52344 0,-0.90234 -0.50976,-1.42383 -0.50391,-0.52148 -1.32422,-0.52148 -0.50977,0 -0.91992,0.23437 -0.41016,0.22852 -0.64453,0.59766 l -0.99024,-0.12891 0.83203,-4.4121 h 4.27149 v 1.00781 h -3.42774 l -0.46289,2.30859 q 0.77344,-0.53906 1.62305,-0.53906 1.125,0 1.89844,0.7793 0.77343,0.77929 0.77343,2.0039 0,1.16602 -0.67968,2.01563 -0.82618,1.04297 -2.25586,1.04297 -1.17188,0 -1.91602,-0.65625 -0.73828,-0.65625 -0.84375,-1.74024 z m 6.67383,0 1.10742,-0.0937 q 0.12305,0.8086 0.56836,1.21875 0.45117,0.4043 1.08398,0.4043 0.76172,0 1.28907,-0.57422 0.52734,-0.57422 0.52734,-1.52344 0,-0.90234 -0.50976,-1.42383 -0.50391,-0.52148 -1.32422,-0.52148 -0.50977,0 -0.91993,0.23437 -0.41015,0.22852 -0.64453,0.59766 l -0.99023,-0.12891 0.83203,-4.4121 h 4.27148 v 1.00781 h -3.42773 l -0.46289,2.30859 q 0.77344,-0.53906 1.62305,-0.53906 1.125,0 1.89843,0.7793 0.77344,0.77929 0.77344,2.0039 0,1.16602 -0.67969,2.01563 -0.82617,1.04297 -2.25586,1.04297 -1.17187,0 -1.91601,-0.65625 -0.73828,-0.65625 -0.84375,-1.74024 z"
       id="text20-7"
       style="font-family:Arial;-inkscape-font-specification:Arial;fill:#ffffff;stroke-width:2.92157"
       aria-label="'H'/15/0x55" />
    <rect
       style="fill:#000000;fill-opacity:1;stroke:none;stroke-width:2.92157;stroke-dasharray:none;stroke-opacity:1"
       id="rect20"
       width="89.810959"
       height="27.295099"
       x="962.29968"
       y="126.40142" />
    <path
       d="m 988.7063,141.58412 1.07226,-0.0937 q 0.0762,0.64453 0.35157,1.06055 0.28125,0.41015 0.86718,0.66797 0.58594,0.25195 1.31836,0.25195 0.65039,0 1.14844,-0.19336 0.49805,-0.19336 0.73828,-0.52734 0.2461,-0.33985 0.2461,-0.73828 0,-0.4043 -0.23438,-0.70313 -0.23437,-0.30469 -0.77344,-0.50976 -0.3457,-0.13477 -1.52929,-0.41602 -1.1836,-0.28711 -1.65821,-0.53906 -0.61523,-0.32227 -0.91992,-0.79688 -0.29883,-0.48047 -0.29883,-1.07226 0,-0.65039 0.36914,-1.21289 0.36915,-0.56836 1.07813,-0.86133 0.70898,-0.29297 1.57617,-0.29297 0.95508,0 1.68164,0.31055 0.73242,0.30468 1.125,0.90234 0.39258,0.59766 0.42188,1.35352 l -1.08985,0.082 q -0.0879,-0.81446 -0.59765,-1.23047 -0.50391,-0.41602 -1.49414,-0.41602 -1.03125,0 -1.50586,0.38086 -0.46875,0.375 -0.46875,0.9082 0,0.4629 0.33398,0.76172 0.32813,0.29883 1.71094,0.61524 1.38867,0.31054 1.9043,0.54492 0.75,0.3457 1.10742,0.87891 0.35742,0.52734 0.35742,1.21875 0,0.68554 -0.39258,1.29492 -0.39258,0.60351 -1.13086,0.94336 -0.73242,0.33398 -1.65234,0.33398 -1.16602,0 -1.95703,-0.33984 -0.78516,-0.33985 -1.23633,-1.01953 -0.44531,-0.68555 -0.46875,-1.54688 z m 12.5156,0.75586 1.0899,0.13477 q -0.2578,0.95507 -0.9551,1.48242 -0.6973,0.52734 -1.78126,0.52734 -1.36523,0 -2.16797,-0.83789 -0.79687,-0.84375 -0.79687,-2.36133 0,-1.57031 0.80859,-2.4375 0.80859,-0.86718 2.09766,-0.86718 1.24805,0 2.03905,0.84961 0.791,0.8496 0.791,2.39062 0,0.0937 -0.01,0.28125 h -4.64066 q 0.0586,1.02539 0.58008,1.57031 0.52148,0.54492 1.30078,0.54492 0.5801,0 0.9902,-0.30468 0.4102,-0.30469 0.6504,-0.97266 z m -3.46287,-1.70508 h 3.47457 q -0.07,-0.78515 -0.3984,-1.17773 -0.5039,-0.60938 -1.30664,-0.60938 -0.72656,0 -1.2246,0.48633 -0.49219,0.48633 -0.54493,1.30078 z m 9.93747,1.42969 1.0371,0.13477 q -0.1699,1.07226 -0.873,1.68164 -0.6973,0.60351 -1.7168,0.60351 -1.2773,0 -2.0566,-0.83203 -0.7735,-0.83789 -0.7735,-2.39648 0,-1.00782 0.334,-1.76368 0.334,-0.75585 1.0137,-1.13085 0.6855,-0.38086 1.4883,-0.38086 1.0136,0 1.6582,0.51562 0.6445,0.50977 0.8261,1.45313 l -1.0254,0.1582 q -0.1464,-0.62695 -0.5214,-0.94336 -0.3692,-0.31641 -0.8965,-0.31641 -0.7969,0 -1.2949,0.57422 -0.4981,0.56836 -0.4981,1.80469 0,1.25391 0.4805,1.82227 0.4804,0.56835 1.2539,0.56835 0.6211,0 1.0371,-0.38085 0.416,-0.38086 0.5273,-1.17188 z m 4.2422,1.33594 0.1524,0.93164 q -0.4453,0.0937 -0.7969,0.0937 -0.5742,0 -0.8906,-0.18164 -0.3164,-0.18164 -0.4453,-0.47461 -0.129,-0.29883 -0.129,-1.24805 v -3.58008 h -0.7734 v -0.82031 h 0.7734 v -1.54101 l 1.0489,-0.63282 v 2.17383 h 1.0605 v 0.82031 h -1.0605 v 3.63868 q 0,0.45117 0.053,0.58007 0.059,0.12891 0.1816,0.20508 0.129,0.0762 0.3633,0.0762 0.1758,0 0.4629,-0.041 z m 0.6387,-2.16797 q 0,-1.72852 0.9609,-2.56055 0.8028,-0.6914 1.9571,-0.6914 1.2832,0 2.0976,0.84375 0.8145,0.83789 0.8145,2.32031 0,1.20117 -0.3633,1.89258 -0.3574,0.68554 -1.0488,1.0664 -0.6856,0.38086 -1.5,0.38086 -1.3067,0 -2.1153,-0.83789 -0.8027,-0.83789 -0.8027,-2.41406 z m 1.084,0 q 0,1.19531 0.5215,1.79297 0.5214,0.59179 1.3125,0.59179 0.7851,0 1.3066,-0.59765 0.5215,-0.59766 0.5215,-1.82227 0,-1.15429 -0.5274,-1.74609 -0.5214,-0.59766 -1.3007,-0.59766 -0.7911,0 -1.3125,0.5918 -0.5215,0.5918 -0.5215,1.78711 z m 5.9707,3.11133 v -6.22266 h 0.9492 v 0.94336 q 0.3633,-0.66211 0.668,-0.87305 0.3105,-0.21093 0.6797,-0.21093 0.5332,0 1.0839,0.33984 l -0.3632,0.97852 q -0.3868,-0.22852 -0.7735,-0.22852 -0.3457,0 -0.6211,0.21094 -0.2754,0.20508 -0.3926,0.57422 -0.1757,0.5625 -0.1757,1.23046 v 3.25782 z m 3.5859,-1.85742 1.043,-0.16407 q 0.088,0.62696 0.4863,0.96094 0.4043,0.33398 1.125,0.33398 0.7266,0 1.0781,-0.29296 0.3516,-0.29883 0.3516,-0.69727 0,-0.35742 -0.3105,-0.5625 -0.2168,-0.14062 -1.0782,-0.35742 -1.1601,-0.29297 -1.6113,-0.50391 -0.4453,-0.21679 -0.6797,-0.59179 -0.2285,-0.38086 -0.2285,-0.8379 0,-0.41601 0.1875,-0.76757 0.1934,-0.35743 0.5215,-0.5918 0.2461,-0.18164 0.668,-0.30469 0.4277,-0.1289 0.914,-0.1289 0.7324,0 1.2832,0.21093 0.5567,0.21094 0.8203,0.57422 0.2637,0.35742 0.3633,0.96094 l -1.0312,0.14062 q -0.07,-0.48046 -0.4102,-0.75 -0.334,-0.26953 -0.9492,-0.26953 -0.7266,0 -1.0371,0.24024 -0.3106,0.24023 -0.3106,0.5625 0,0.20508 0.1289,0.36914 0.1289,0.16992 0.4043,0.28125 0.1582,0.0586 0.9317,0.26953 1.1191,0.29883 1.5586,0.49219 0.4453,0.1875 0.6972,0.55078 0.252,0.36328 0.252,0.90234 0,0.52735 -0.3106,0.9961 -0.3046,0.46289 -0.8847,0.7207 -0.5801,0.25195 -1.3125,0.25195 -1.2129,0 -1.8516,-0.5039 -0.6328,-0.50391 -0.8086,-1.49414 z"
       id="text21"
       style="font-family:Arial;-inkscape-font-specification:Arial;fill:#fefefe;stroke-width:2.92157"
       aria-label="Sectors" />
  </g>
</svg>
